<?xml version="1.0" encoding="UTF-8"?>
<svg width="24px" height="24px" viewBox="0 0 24 24" version="1.1" xmlns="http://www.w3.org/2000/svg" xmlns:xlink="http://www.w3.org/1999/xlink">
    <!-- Generator: Sketch 56.3 (81716) - https://sketch.com -->
    <title>Shape</title>
    <desc>Created with Sketch.</desc>
    <g id="Symbols_UI" stroke="none" stroke-width="1" fill="none" fill-rule="evenodd">
        <g id="icon/chat-inactive" transform="translate(-2.000000, -2.000000)" fill="#CFCFCF" fill-rule="nonzero" stroke="#CFCFCF" stroke-width="0.5">
            <g id="chat" transform="translate(3.000000, 3.000000)">
                <path d="M11.343827,21.7531 C9.23646326,21.7612172 7.16739438,21.1900543 5.36262695,20.102 L1.01162695,21.5916 C0.740608757,21.6745398 0.446004653,21.5964697 0.251626954,21.3902 C0.125534049,21.2290557 0.0794065606,21.0193853 0.126226954,20.8202 L1.42962695,16.15 C0.440061443,14.4550576 -0.0536792019,12.5163027 0.00462695444,10.5545 C0.215526954,4.75 5.27902695,0 11.343827,0 L11.511027,0 C14.6093089,0.0344182913 17.5639345,1.31183521 19.711427,3.5454 C21.8156015,5.73889337 22.8680136,8.73539267 22.597527,11.7629 C22.179527,16.9195 17.786727,21.1888 12.432527,21.6733 C12.0738215,21.7410548 11.7085782,21.7678266 11.343827,21.7531 L11.343827,21.7531 Z M5.48802695,19.2147 L5.65522695,19.3363 C7.66266673,20.5953355 10.0339182,21.1458404 12.390727,20.9 C17.330727,20.4573 21.383427,16.5091 21.761527,11.7154 C22.0105137,8.90975469 21.033619,6.13357236 19.082527,4.1021 C17.1077027,2.02547488 14.3765731,0.836388381 11.511027,0.8056 L11.343827,0.8056 C5.73882695,0.8056 1.05342695,5.1965 0.893826954,10.5944 C0.844645911,12.4621139 1.32271154,14.3058931 2.27322695,15.9144 L2.35682695,16.0759 L1.05342695,20.7461 L5.48802695,19.2147 Z" id="Shape"></path>
            </g>
        </g>
    </g>
</svg>