<svg xmlns="http://www.w3.org/2000/svg" viewBox="0 0 121.11 116.49"><defs><style>.cls-1{stroke:#000;stroke-miterlimit:10;stroke-width:2px;}</style></defs><title>chat</title><g id="Layer_2" data-name="Layer 2"><g id="Sample"><path class="cls-1" d="M60.68,115.49A60.52,60.52,0,0,1,29.2,106.8L6.3,114.64a3.92,3.92,0,0,1-4-1.06,3.55,3.55,0,0,1-.66-3L8.5,86A55.16,55.16,0,0,1,1,56.55C2.11,26,28.76,1,60.68,1h.88a60.81,60.81,0,0,1,43.16,18.66,55.36,55.36,0,0,1,15.19,43.25c-2.2,27.14-25.32,49.61-53.5,52.16A25.36,25.36,0,0,1,60.68,115.49ZM29.86,102.13l.88.64A55.82,55.82,0,0,0,66.19,111c26-2.33,47.33-23.11,49.32-48.34a51.3,51.3,0,0,0-14.1-40.07A55.82,55.82,0,0,0,61.56,5.24h-.88c-29.5,0-54.16,23.11-55,51.52a52.33,52.33,0,0,0,7.26,28l.44.85L6.52,110.19Z"/></g></g></svg>