<?xml version="1.0" encoding="UTF-8"?>
<svg width="22px" height="25px" viewBox="0 0 22 25" version="1.1" xmlns="http://www.w3.org/2000/svg" xmlns:xlink="http://www.w3.org/1999/xlink">
    <!-- Generator: Sketch 56.3 (81716) - https://sketch.com -->
    <title>community</title>
    <desc>Created with Sketch.</desc>
    <g id="Symbols_UI" stroke="none" stroke-width="1" fill="none" fill-rule="evenodd">
        <g id="icon/community-active" transform="translate(-8.000000, -3.000000)" stroke="#00A3B4" stroke-width="1.08">
            <g id="community" transform="translate(9.000000, 4.000000)">
                <path d="M11.826,22.7556 C11.5572966,22.9385358 11.2606215,23.0765384 10.9476,23.1642 C10.9476,23.1642 10.8432,23.1642 10.8378,23.1642 C10.017,23.3136 6.2766,21.015 3.6018,17.5842 C0.756,13.9266 -0.0972,10.1286 0.2538,9.8136 C0.54,9.7074 2.2104,10.3338 4.1166,11.682 C3.4848,8.3538 3.9168,5.76 4.32,5.5908 C4.7034,5.5656 6.543,6.948 8.2008,9.261 C8.6598,4.32 10.5786,0.7992 11.16,0.7632 C11.5668,0.8838 12.8556,2.8008 13.8006,5.6232 C16.02,1.944 18.54,-0.1548 19.0674,0.009 C19.6866,0.4734 20.9142,6.939 18.5724,13.149 C16.6878,18.1494 13.3758,21.6864 11.772,22.7952" id="Path"></path>
            </g>
        </g>
    </g>
</svg>