<svg xmlns="http://www.w3.org/2000/svg" viewBox="0 0 115.81 134.76"><defs><style>.cls-1{fill:none;stroke:#000;stroke-miterlimit:10;stroke-width:6px;}</style></defs><title>community</title><g id="Layer_2" data-name="Layer 2"><g id="Sample"><path class="cls-1" d="M67.7,129.42a16.65,16.65,0,0,1-4.88,2.27s-.58,0-.61,0c-4.56.83-25.34-11.94-40.2-31C6.2,80.37,1.46,59.27,3.41,57.52,5,56.93,14.28,60.41,24.87,67.9,21.36,49.41,23.76,35,26,34.06c2.13-.14,12.35,7.54,21.56,20.39C50.11,27,60.77,7.44,64,7.24c2.26.67,9.42,11.32,14.67,27C91,13.8,105,2.14,107.93,3.05c3.44,2.58,10.26,38.5-2.75,73-10.47,27.78-28.87,47.43-37.78,53.59"/></g></g></svg>