<?xml version="1.0" encoding="UTF-8"?>
<svg width="25px" height="25px" viewBox="0 0 25 25" version="1.1" xmlns="http://www.w3.org/2000/svg" xmlns:xlink="http://www.w3.org/1999/xlink">
    <!-- Generator: Sketch 56.3 (81716) - https://sketch.com -->
    <title>connections</title>
    <desc>Created with Sketch.</desc>
    <g id="Symbols_UI" stroke="none" stroke-width="1" fill="none" fill-rule="evenodd">
        <g id="icon/connections-inactive" transform="translate(-8.000000, -2.000000)" fill="#CFCFCF" fill-rule="nonzero" stroke="#CFCFCF" stroke-width="0.558">
            <g id="connections" transform="translate(9.000000, 3.000000)">
                <path d="M18.4614091,8.59332539 C20.1993908,8.59332522 21.7662046,7.54629087 22.4311275,5.94053313 C23.0960505,4.33477538 22.7281106,2.48658527 21.4989059,1.25791271 C20.2697012,0.0292401478 18.4213519,-0.337899457 16.8158823,0.327718678 C15.2104126,0.993336812 14.1640567,2.56060384 14.1648091,4.29858539 C14.165059,4.92374583 14.3035234,5.54111906 14.5702891,6.10650539 L9.86076911,8.65098539 C8.66304145,6.65425509 6.30392454,5.67110382 4.04268294,6.22632436 C1.78144134,6.7815449 0.145956276,8.7455224 0.00922745495,11.0699123 C-0.127501366,13.3943023 1.26644506,15.5364817 3.44699707,16.3529842 C5.62754908,17.1694867 8.08566222,16.4697019 9.50922911,14.6271654 L14.4010291,18.2560254 C14.2453665,18.6414117 14.1651738,19.0531093 14.1648091,19.4687454 C14.1594,21.1196976 15.3763188,22.51995 17.0119016,22.7447635 C18.6474845,22.969577 20.1970698,21.9495852 20.6372979,20.3583996 C21.0775259,18.7672139 20.2725636,17.0957973 18.7540151,16.4479678 C17.2354667,15.8001383 15.4718825,16.3757849 14.6279491,17.7947454 L9.80124911,14.2030854 C10.7836687,12.665457 10.8970595,10.7279548 10.1007091,9.08622539 L14.8102291,6.55104539 C15.5905297,7.8191691 16.9724479,8.59214218 18.4614091,8.59332539 Z M17.4495691,16.6806054 C18.573505,16.6806054 19.5867709,17.357648 20.0168825,18.3960294 C20.4469941,19.4344107 20.2092484,20.6296393 19.4145057,21.424382 C18.619763,22.2191247 17.4245344,22.4568704 16.3861531,22.0267588 C15.3477717,21.5966472 14.6707291,20.5833813 14.6707291,19.4594454 C14.6768456,17.9272751 15.9173989,16.6867219 17.4495691,16.6806054 Z M5.31492911,16.1746854 C2.6628137,16.1726309 0.514418675,14.0211827 0.516129446,11.3690671 C0.517842262,8.71695142 2.66901278,6.56827839 5.32112863,6.56964681 C7.97324447,6.57101654 10.1221955,8.72190938 10.1211695,11.3740254 C10.1180899,14.0262591 7.96716456,16.1746854 5.31492911,16.1746854 L5.31492911,16.1746854 Z M18.4614091,0.507905386 C20.5549439,0.507905386 22.2520891,2.20505063 22.2520891,4.29858539 C22.2520891,6.39212014 20.5549439,8.08926539 18.4614091,8.08926539 C16.3678744,8.08926539 14.6707291,6.39212014 14.6707291,4.29858539 C14.6727798,2.20590063 16.3687243,0.509956034 18.4614091,0.507905386 L18.4614091,0.507905386 Z" id="Shape"></path>
            </g>
        </g>
    </g>
</svg>