<svg xmlns="http://www.w3.org/2000/svg" viewBox="0 0 125.27 125.27"><defs><style>.cls-1{stroke:#000;stroke-miterlimit:10;stroke-width:3px;}</style></defs><title>connections</title><g id="Layer_2" data-name="Layer 2"><g id="Sample"><path class="cls-1" d="M100.68,47.69A23.1,23.1,0,1,0,77.58,24.6a22.8,22.8,0,0,0,2.18,9.72L54.44,48a28.54,28.54,0,1,0-1.89,32.13l26.3,19.51a17.45,17.45,0,0,0-1.27,6.52,17.72,17.72,0,1,0,2.49-9L54.12,77.85a28.22,28.22,0,0,0,1.61-27.51L81.05,36.71A23.07,23.07,0,0,0,100.68,47.69ZM95.24,91.17A14.94,14.94,0,1,1,80.3,106.11,15,15,0,0,1,95.24,91.17ZM30,88.45A25.82,25.82,0,1,1,55.84,62.64,25.84,25.84,0,0,1,30,88.45ZM100.68,4.22A20.38,20.38,0,1,1,80.3,24.6,20.4,20.4,0,0,1,100.68,4.22Z"/></g></g></svg>