<svg xmlns="http://www.w3.org/2000/svg" viewBox="0 0 129.51 129.51"><defs><style>.cls-1{stroke:#000;stroke-miterlimit:10;stroke-width:1.5px;}</style></defs><title>profile</title><g id="Layer_2" data-name="Layer 2"><g id="Sample"><path class="cls-1" d="M64.76.75a64,64,0,0,0-43.39,111l-.16.23,1.63,1.4A64.09,64.09,0,0,0,54.68,128c.84.14,1.65.23,2.49.32s1.81.19,2.74.26c1.35.09,2.7.16,4.08.19l.42,0h.32a64,64,0,1,0,0-128Zm-9.11,90.4a4.14,4.14,0,0,0-3.51-2H37.36a35.25,35.25,0,0,1-8.91-2.14c-.72-.3-1-.56-1.1-.56a2.57,2.57,0,0,1,.33-.58c5.26-7.49,14.15-22.43,14.45-38.19,0-.89.79-21.62,21.72-21.79C76.35,26,82.23,33.36,85,39.48a32.09,32.09,0,0,1,2.49,11.15c.91,13.73,7.22,26.69,12.34,35.12a2,2,0,0,1,.23,1.47,1.69,1.69,0,0,1-.79,1.07,9.37,9.37,0,0,1-5.58.93l-15.51,0a3.86,3.86,0,0,0-3.65,2.68,4,4,0,0,0,1.26,4.47,20.71,20.71,0,0,0,2.56,1.84l17.73,10.73a12.75,12.75,0,0,1,3.94,3.33,58.62,58.62,0,0,1-35.47,11.87c-.21,0-.42,0-.63,0-1.12,0-2.24-.07-3.33-.14a59.08,59.08,0,0,1-32.75-12.75,12.1,12.1,0,0,1,2.89-2.07L52.07,100c1.72-.86,2.77-2.77,3.79-4.79A4.13,4.13,0,0,0,55.65,91.15Zm48.09,18.29a17.12,17.12,0,0,0-5.33-4.58L80.68,94.13l-.45-.28h12.9a13.91,13.91,0,0,0,8.54-1.56,6.29,6.29,0,0,0,2.91-4,6.59,6.59,0,0,0-.77-5C99,75.32,93,63.1,92.13,50.3a36.39,36.39,0,0,0-2.89-12.73c-3.3-7.35-10.4-16.18-25.39-16.29-25.51.21-26.35,26.07-26.37,26.35-.31,15-9.62,29.93-13.62,35.61a5.08,5.08,0,0,0-1,4.46c.44,1.54,1.67,2.73,3.77,3.63a39.37,39.37,0,0,0,10.52,2.52H51.28a8.33,8.33,0,0,1-1.19,1.88l-21.34,9.15a17.12,17.12,0,0,0-4.45,3.26,59.37,59.37,0,1,1,79.44,1.3Z"/></g></g></svg>