<?xml version="1.0" encoding="UTF-8"?>
<svg width="25px" height="25px" viewBox="0 0 25 25" version="1.1" xmlns="http://www.w3.org/2000/svg" xmlns:xlink="http://www.w3.org/1999/xlink">
    <!-- Generator: Sketch 56.3 (81716) - https://sketch.com -->
    <title>Shape</title>
    <desc>Created with Sketch.</desc>
    <g id="Symbols_UI" stroke="none" stroke-width="1" fill="none" fill-rule="evenodd">
        <g id="icon/profile-active" transform="translate(-1.000000, -3.000000)" fill="#00A3B4" fill-rule="nonzero" stroke="#00A3B4" stroke-width="0.5">
            <g id="Group" transform="translate(2.000000, 4.000000)">
                <path d="M11.6568,0.135 C6.91640257,0.138673251 2.66219497,3.04580386 0.936341547,7.46087024 C-0.789511881,11.8759366 0.365368173,16.8974845 3.8466,20.115 L3.8178,20.1564 L4.1112,20.4084 C5.74009506,21.8008888 7.72465747,22.7121421 9.8424,23.04 C9.9936,23.0652 10.1394,23.0814 10.2906,23.0976 C10.4418,23.1138 10.6164,23.1318 10.7838,23.1444 C11.0268,23.1606 11.2698,23.1732 11.5182,23.1786 L11.5938,23.1786 L11.6514,23.1786 C18.0137203,23.1786 23.1714,18.0209203 23.1714,11.6586 C23.1714,5.29627968 18.0137203,0.1386 11.6514,0.1386 L11.6568,0.135 Z M10.017,16.407 C9.88321324,16.1854187 9.64402933,16.0491316 9.3852,16.047 L6.7248,16.047 C6.17571701,15.9889287 5.63656268,15.8594348 5.121,15.6618 C4.9914,15.6078 4.941,15.561 4.923,15.561 C4.9381787,15.5237664 4.95814698,15.4886706 4.9824,15.4566 C5.9292,14.1084 7.5294,11.4192 7.5834,8.5824 C7.5834,8.4222 7.7256,4.6908 11.493,4.6602 C13.743,4.68 14.8014,6.0048 15.3,7.1064 C15.5682443,7.74320592 15.7200496,8.42297668 15.7482,9.1134 C15.912,11.5848 17.0478,13.9176 17.9694,15.435 C18.0167152,15.5145936 18.0315423,15.609358 18.0108,15.6996 C17.9917171,15.7805375 17.9403323,15.8501346 17.8686,15.8922 C17.559042,16.0501457 17.2082507,16.108611 16.8642,16.0596 L14.0724,16.0596 C13.7721766,16.0615632 13.5071737,16.2561407 13.4154,16.542 C13.3116216,16.8311207 13.4027026,17.1542416 13.6422,17.3466 C13.7871617,17.4685478 13.9412079,17.5792685 14.103,17.6778 L17.2944,19.6092 C17.5691729,19.7585887 17.810512,19.9625632 18.0036,20.2086 C16.1658094,21.5988747 13.9234135,22.3492903 11.619,22.3452166 C11.5812,22.3452166 11.5434,22.3452166 11.5056,22.3452166 C11.304,22.3452166 11.1024,22.3326 10.9062,22.32 C8.75389193,22.1706928 6.69790418,21.3702701 5.0112,20.025 C5.16531052,19.8758668 5.3406018,19.7503122 5.5314,19.6524 L9.3726,18 C9.6822,17.8452 9.8712,17.5014 10.0548,17.1378 C10.1712693,16.9044353 10.1569245,16.6271029 10.017,16.407 Z M18.6732,19.6992 C18.4138478,19.3610141 18.0871665,19.0803011 17.7138,18.8748 L14.5224,16.9434 L14.4414,16.893 L16.7634,16.893 C17.2926351,16.9657872 17.8312771,16.8673936 18.3006,16.6122 C18.5662024,16.4538063 18.7554565,16.1936632 18.8244,15.8922 C18.8997761,15.5857079 18.8498963,15.2618133 18.6858,14.9922 C17.82,13.5576 16.74,11.358 16.5834,9.054 C16.5495337,8.26508829 16.3732987,7.48880067 16.0632,6.7626 C15.4692,5.4396 14.1912,3.8502 11.493,3.8304 C6.9012,3.8682 6.75,8.523 6.7464,8.5734 C6.6906,11.2734 5.0148,13.9608 4.2948,14.9832 C4.11100316,15.2071709 4.04422639,15.5049953 4.1148,15.786 C4.194,16.0632 4.4154,16.2774 4.7934,16.4394 C5.40072177,16.6770096 6.03793541,16.8296501 6.687,16.893 L9.2304,16.893 C9.17445366,17.014871 9.10241117,17.128686 9.0162,17.2314 L5.175,18.8784 C4.87803544,19.0294153 4.60752462,19.2275873 4.374,19.4652 C1.13483567,16.4513581 0.0878062108,11.7531241 1.74070222,7.64905741 C3.39359823,3.54499077 7.40458494,0.883851949 11.8284054,0.956245788 C16.2522258,1.02863963 20.1739915,3.81959439 21.691716,7.97554681 C23.2094405,12.1314992 22.0092438,16.7929585 18.6732,19.6992 L18.6732,19.6992 Z" id="Shape"></path>
            </g>
        </g>
    </g>
</svg>