<svg xmlns="http://www.w3.org/2000/svg" viewBox="0 0 103.53 92.87"><defs><style>.cls-1{stroke:#000;stroke-miterlimit:10;}</style></defs><title>Coffee</title><g id="Layer_2" data-name="Layer 2"><g id="Sample"><path d="M101,76.05H75.65a32.39,32.39,0,0,0,6.49-9.44l.15-.29a2,2,0,0,0,.89.14,14.22,14.22,0,0,0,2.5.3,12.6,12.6,0,0,0,2.36-.3,15.72,15.72,0,0,0,10.48-6.34,19.71,19.71,0,0,0,4-11.95,19.44,19.44,0,0,0-.15-3A2.54,2.54,0,0,0,99.85,43H86.13l.14-3.1a2.48,2.48,0,0,0-2.5-2.51H18.41a2.28,2.28,0,0,0-2.36,2.51V49.5a41.49,41.49,0,0,0,3.83,17.11,39.75,39.75,0,0,0,6.49,9.44l-23.9.15A2.59,2.59,0,0,0,.26,77.38a2.56,2.56,0,0,0,1,3.4,102.82,102.82,0,0,0,23.9,9,110.82,110.82,0,0,0,26.56,3.1,110,110,0,0,0,26.56-3.1,96.22,96.22,0,0,0,23.75-8.85,2.63,2.63,0,0,0,1.47-2.36A2.48,2.48,0,0,0,101,76.05ZM86,49.5V48H97.49v.15A14.24,14.24,0,0,1,94.54,57a11.32,11.32,0,0,1-7.23,4.58c-.59,0-1.18.14-1.63.14a4.74,4.74,0,0,1-1.47-.14A40.71,40.71,0,0,0,86,49.5ZM24.39,64.06a33.6,33.6,0,0,1-3.2-15L21.28,42l60.19.77-.16,1.33-.08,5.75a35.7,35.7,0,0,1-3.58,14.86,31.74,31.74,0,0,1-9.44,11.53l-34.67-.44A31.61,31.61,0,0,1,24.39,64.06ZM77.13,84.91a109.21,109.21,0,0,1-25.38,3,109.21,109.21,0,0,1-25.38-3A87.77,87.77,0,0,1,14,81.07H89.67A84.36,84.36,0,0,1,77.13,84.91Z"/><path class="cls-1" d="M62.46.72a1.67,1.67,0,0,1,1.81.1c3.5,2.63,8.85,9,4.08,14.41-.18.2-.36.37-.51.52-.9.87-5.22,5.42-1.85,9.46A1.17,1.17,0,0,1,65.64,27a1.73,1.73,0,0,1-1.52.11,21,21,0,0,1-5.8-3.81c-4-3.83-3.71-9.08.76-12.76,3.06-2.52,4-5.33,2.8-8.34A1.18,1.18,0,0,1,62.46.72ZM61.14,12.38c-3.34,2.75-3.58,6.36-.6,9.2a12.17,12.17,0,0,0,1.22,1c-.43-4.13,3-7.71,3.84-8.56a4.54,4.54,0,0,0,.38-.38c2.38-2.68,1-5.74-.7-7.95a10.66,10.66,0,0,1-4.14,6.65Z"/><path class="cls-1" d="M40.25.72a1.67,1.67,0,0,1,1.81.1c3.5,2.63,8.85,9,4.08,14.41-.18.2-.36.37-.51.52-.9.87-5.21,5.42-1.85,9.46A1.17,1.17,0,0,1,43.43,27a1.73,1.73,0,0,1-1.52.11,21,21,0,0,1-5.8-3.81c-4-3.83-3.71-9.08.76-12.76,3.06-2.52,4-5.33,2.8-8.34A1.18,1.18,0,0,1,40.25.72ZM38.93,12.38c-3.34,2.75-3.58,6.36-.6,9.2a12.17,12.17,0,0,0,1.22,1c-.43-4.13,3-7.71,3.85-8.56.13-.13.26-.25.37-.38,2.38-2.68,1-5.74-.7-7.95a10.66,10.66,0,0,1-4.14,6.65Z"/></g></g></svg>