<?xml version="1.0" encoding="UTF-8"?>
<svg width="38px" height="35px" viewBox="0 0 38 35" version="1.1" xmlns="http://www.w3.org/2000/svg" xmlns:xlink="http://www.w3.org/1999/xlink">
    <!-- Generator: Sketch 56.3 (81716) - https://sketch.com -->
    <title>Coffee</title>
    <desc>Created with Sketch.</desc>
    <g id="Symbols-UX" stroke="none" stroke-width="1" fill="none" fill-rule="evenodd">
        <g id="coffee" fill="#4D4D4F" fill-rule="nonzero">
            <g id="Coffee">
                <path d="M37.0821474,28.9338027 L27.7774667,28.9338027 C28.7710775,27.9477182 29.5777399,26.7956384 30.1596118,25.5316094 L30.2146691,25.4270928 C30.3182346,25.4680882 30.4299602,25.4853447 30.5413423,25.4775491 C30.8433583,25.5401608 31.1504356,25.5763428 31.4589636,25.5856696 C31.7505351,25.5765352 32.0405724,25.5403337 32.3251982,25.4775491 C33.8693119,25.2578866 35.2570086,24.4335852 36.171867,23.1926014 C37.1280652,21.9534366 37.6438356,20.4404752 37.6400612,18.8857994 C37.6501357,18.5245427 37.6317284,18.1630621 37.5850039,17.8045939 C37.517498,17.3544081 37.1234711,17.0212514 36.6600416,17.0225219 L31.6241355,17.0225219 L31.6755223,15.9052762 C31.6784895,15.665104 31.5828844,15.4338663 31.4102578,15.2636877 C31.2376312,15.0935091 31.0025125,14.9987129 30.7579009,15.0006676 L6.76760778,15.0006676 C6.52516655,14.9910732 6.29041908,15.085269 6.12421141,15.2588396 C5.95800374,15.4324102 5.87669973,15.668267 5.90137321,15.9052762 L5.90137321,19.3651339 C5.91724174,21.4954868 6.39654126,23.5979176 7.30716915,25.5316094 C7.92974992,26.7726625 8.7321288,27.9186246 9.68931423,28.9338027 L0.91685392,28.987863 C0.589977267,28.983244 0.283613361,29.1438607 0.105676627,29.4131372 C-0.126232774,29.8521692 0.0356678751,30.3926633 0.472725176,30.6385034 C3.24823342,32.0734672 6.19511223,33.1630755 9.24518549,33.88212 C12.4369493,34.6395379 15.7103765,35.0146835 18.9939949,34.9993657 C22.2777787,35.0176057 25.5515651,34.642419 28.7428044,33.88212 C31.7791269,33.2010077 34.7103512,32.1285203 37.4602074,30.6925637 C37.7904631,30.5331985 37.9998878,30.2033348 37.9998878,29.8420153 C38.0037329,29.6012228 37.9085685,29.369048 37.735832,29.1980826 C37.5630955,29.0271172 37.3274046,28.9318291 37.0821474,28.9338027 L37.0821474,28.9338027 Z M31.5764192,19.3651339 L31.5764192,18.8245311 L35.793807,18.8245311 L35.793807,18.8785914 C35.8078473,20.0309946 35.4264399,21.1544968 34.7110138,22.0681477 C34.0805077,22.9381561 33.1277494,23.5307722 32.0572528,23.7187881 C31.8406941,23.7187881 31.6241355,23.7692444 31.4589636,23.7692444 C31.2775298,23.7802054 31.0954672,23.7631801 30.9194023,23.7187881 C31.3601005,22.3082613 31.5815976,20.8405337 31.5764192,19.3651339 Z M8.9625581,24.6125847 C8.1518033,22.9235893 7.74981274,21.073381 7.78800275,19.2065571 L7.82103712,16.6621201 L29.9136893,16.9396295 L29.8549615,17.418964 L29.8255976,19.4912745 C29.7865056,21.3486792 29.3382207,23.1757417 28.5115638,24.8468459 C27.7087914,26.4823497 26.5210816,27.906747 25.0466255,29.0022791 L12.3210523,28.8437023 C10.8745096,27.7159279 9.7230924,26.2653428 8.9625581,24.6125847 Z M28.3206986,32.126963 C25.2692647,32.8441069 22.1426309,33.2069928 19.0050064,33.2081685 C15.8673819,33.2069928 12.7407481,32.8441069 9.68931423,32.126963 C8.14320288,31.7760774 6.62560823,31.3135039 5.14892368,30.7430199 L32.9234874,30.7430199 C31.4281241,31.3209129 29.889212,31.7836252 28.3206986,32.126963 Z" id="Shape"></path>
                <path d="M23.27345,0.2754 C23.491666,0.150890221 23.7626033,0.165859133 23.965775,0.31365 C25.304525,1.319625 27.3509,3.75615 25.526375,5.825475 C25.457525,5.901975 25.388675,5.967 25.3313,6.024375 C24.98705,6.35715 23.33465,8.097525 24.623675,9.642825 C24.7110973,9.74647284 24.7468134,9.88416722 24.7207935,10.0172405 C24.6947736,10.1503137 24.6098238,10.2644142 24.4898,10.3275 C24.3129494,10.4307278 24.0982709,10.4462637 23.9084,10.369575 C23.0931994,10.0101909 22.3434653,9.51769315 21.6899,8.91225 C20.1599,7.447275 20.270825,5.43915 21.9806,4.03155 C23.15105,3.06765 23.5106,1.992825 23.0516,0.8415 C22.9682934,0.623823585 23.0644278,0.378515121 23.27345,0.2754 Z M22.76855,4.73535 C21.491,5.787225 21.3992,7.16805 22.53905,8.25435 C22.6861644,8.39180758 22.8420418,8.51957591 23.0057,8.63685 C22.841225,7.057125 24.1532,5.687775 24.4745,5.36265 C24.5257775,5.31711254 24.5743125,5.26857753 24.61985,5.2173 C25.5302,4.1922 25.00235,3.02175 24.3521,2.176425 C24.1661952,3.19454429 23.6000868,4.10387302 22.76855,4.72005 L22.76855,4.73535 Z" id="Shape" stroke="#4D4D4F" stroke-width="0.5"></path>
                <path d="M14.778125,0.2754 C14.996341,0.150890221 15.2672783,0.165859133 15.47045,0.31365 C16.8092,1.319625 18.855575,3.75615 17.03105,5.825475 C16.9622,5.901975 16.89335,5.967 16.835975,6.024375 C16.491725,6.35715 14.84315,8.097525 16.12835,9.642825 C16.2157723,9.74647284 16.2514884,9.88416722 16.2254685,10.0172405 C16.1994486,10.1503137 16.1144988,10.2644142 15.994475,10.3275 C15.8176244,10.4307278 15.6029459,10.4462637 15.413075,10.369575 C14.5978744,10.0101909 13.8481403,9.51769315 13.194575,8.91225 C11.664575,7.447275 11.7755,5.43915 13.485275,4.03155 C14.655725,3.06765 15.015275,1.992825 14.556275,0.8415 C14.4729684,0.623823585 14.5691028,0.378515121 14.778125,0.2754 Z M14.273225,4.73535 C12.995675,5.787225 12.903875,7.16805 14.043725,8.25435 C14.1908394,8.39180758 14.3467168,8.51957591 14.510375,8.63685 C14.3459,7.057125 15.657875,5.687775 15.983,5.36265 C16.032725,5.312925 16.08245,5.267025 16.124525,5.2173 C17.034875,4.1922 16.507025,3.02175 15.856775,2.176425 C15.6708702,3.19454429 15.1047618,4.10387302 14.273225,4.72005 L14.273225,4.73535 Z" id="Shape" stroke="#4D4D4F" stroke-width="0.5"></path>
            </g>
        </g>
    </g>
</svg>