<?xml version="1.0" encoding="UTF-8"?>
<svg width="32px" height="45px" viewBox="0 0 32 45" version="1.1" xmlns="http://www.w3.org/2000/svg" xmlns:xlink="http://www.w3.org/1999/xlink">
    <!-- Generator: Sketch 56.3 (81716) - https://sketch.com -->
    <title>icon/Lunch active</title>
    <desc>Created with Sketch.</desc>
    <g id="Symbols-UX" stroke="none" stroke-width="1" fill="none" fill-rule="evenodd">
        <g id="icon/Lunch-active" fill="#4D4D4F" fill-rule="nonzero">
            <g id="Lunch">
                <g>
                    <path d="M31.956,10.496 C32.0094446,8.05800384 31.3967841,5.65161724 30.184,3.536 C29.068,1.704 27.412,0.428 25.46,0.431990622 C23.508,0.436 21.86,1.732 20.732,3.564 C19.5347463,5.67437687 18.9333276,8.07037336 18.992,10.496 C18.992,14.496 20.292,17.816 22.676,19.4 L21.776,44.02 C21.7673748,44.2657714 21.8570795,44.5048419 22.0252512,44.684275 C22.1934229,44.8637082 22.4261857,44.9686991 22.672,44.9760087 L28.244,44.9760087 C28.4897524,44.9770639 28.7258043,44.880184 28.899954,44.706785 C29.0741037,44.5333859 29.1720023,44.2977547 29.172,44.052 L29.172,44.02 L28.272,19.4 C30.656,17.816 31.944,14.508 31.956,10.496 Z M26.908,18.152 C26.5808715,18.3163625 26.381633,18.6583626 26.4,19.024 L27.296,43.12 L23.66,43.12 L24.56,19.024 C24.5733639,18.6552291 24.3678928,18.3133001 24.036,18.152 C22.232,17.252 20.86,14.416 20.836,10.496 C20.788101,8.40898846 21.2990787,6.34712441 22.316,4.524 C23.204,3.048 24.316,2.284 25.448,2.28798437 C26.58,2.292 27.708,3.048 28.608,4.524 C29.6249213,6.34712441 30.135899,8.40898846 30.088,10.496 C30.088,14.4 28.712,17.252 26.908,18.152 Z" id="Shape"></path>
                    <path d="M13.392,12.612 C13.3960156,12.5734376 13.3960156,12.5345624 13.392,12.496 L13.392,1.36 C13.3962872,1.02845752 13.2233729,0.719812451 12.9383923,0.550328397 C12.6534117,0.380844343 12.2996601,0.376269969 12.0103923,0.538328397 C11.7211245,0.700386825 11.5402872,1.00445752 11.536,1.336 L11.536,12.4 C11.4139352,13.3985888 11.1513379,14.3749122 10.756,15.3 L9.68,15.3 L9.68,1.36 C9.68971611,1.11219768 9.59941402,0.870890918 9.42940164,0.690346792 C9.25938925,0.509802666 9.02393868,0.405177401 8.776,0.4 C8.70077334,0.396547417 8.62542508,0.40327494 8.552,0.42 C8.11593593,0.519187905 7.81095041,0.912987895 7.824,1.36 L7.824,15.28 L5.968,15.28 L5.968,1.36 C5.97771611,1.11219768 5.88741402,0.870890918 5.71740164,0.690346792 C5.54738925,0.509802666 5.31193868,0.405177401 5.064,0.4 C4.98877334,0.396547417 4.91342508,0.40327494 4.84,0.42 C4.40393593,0.519187905 4.09895041,0.912987895 4.112,1.36 L4.112,15.28 L3.04,15.28 C2.63934821,14.3553887 2.37006985,13.3792546 2.24,12.38 L2.24,1.36 C2.26039201,0.854020844 1.86972738,0.425895216 1.364,0.4 L1.244,0.4 L1.128,0.432 C0.696442077,0.530298361 0.392729574,0.917448365 0.399872225,1.36 L0.399872225,12.612 C0.8,15.632 2.124,18.136 4.084,19.412 L3.2,44.02 C3.19246086,44.2661519 3.28307215,44.5052063 3.45187845,44.6845161 C3.62068475,44.8638259 3.85384138,44.9686849 4.1,44.9760087 L9.7,44.9760087 C9.94612159,44.9770632 10.1825848,44.8803102 10.3573692,44.7070261 C10.5321536,44.5337419 10.6309414,44.2981216 10.632,44.052 C10.6339557,44.041423 10.6339557,44.030577 10.632,44.02 L9.712,19.428 C11.672,18.136 12.996,15.632 13.392,12.612 Z M8.348,18.152 C8.01610721,18.3133001 7.81063607,18.6552291 7.824,19.024 L8.724,43.12 L5.072,43.12 L5.968,19.024 C5.98418955,18.6556134 5.77980088,18.3128693 5.448,18.152 C4.97106519,17.8959433 4.54746557,17.5510898 4.2,17.136 L9.6,17.136 C9.25135544,17.5514892 8.82636815,17.896367 8.348,18.152 Z" id="Shape"></path>
                </g>
            </g>
        </g>
    </g>
</svg>