<svg xmlns="http://www.w3.org/2000/svg" viewBox="0 0 78.89 111.44"><title>Lunch</title><g id="Layer_2" data-name="Layer 2"><g id="Sample"><path d="M78.89,25.24a33.51,33.51,0,0,0-4.43-17.4C71.67,3.26,67.53.07,62.65.08s-9,3.25-11.82,7.83a33.48,33.48,0,0,0-4.35,17.33c0,10,3.25,18.3,9.21,22.26l-2.25,61.55a2.31,2.31,0,0,0,2.24,2.39H69.61a2.31,2.31,0,0,0,2.32-2.31v-.08L69.68,47.5C75.64,43.54,78.86,35.27,78.89,25.24ZM66.27,44.38A2.31,2.31,0,0,0,65,46.56l2.24,60.24H58.15L60.4,46.56a2.33,2.33,0,0,0-1.31-2.18c-4.51-2.25-7.94-9.34-8-19.14a29.27,29.27,0,0,1,3.7-14.93c2.22-3.69,5-5.6,7.83-5.59s5.65,1.9,7.9,5.59a29.27,29.27,0,0,1,3.7,14.93C74.22,35,70.78,42.13,66.27,44.38Z"/><path d="M32.48,30.53a1.4,1.4,0,0,0,0-.29V2.4a2.32,2.32,0,1,0-4.64-.06V30a26.69,26.69,0,0,1-1.95,7.25H23.2V2.4A2.31,2.31,0,0,0,20.94,0a2.09,2.09,0,0,0-.56.05A2.34,2.34,0,0,0,18.56,2.4V37.2H13.92V2.4A2.31,2.31,0,0,0,11.66,0a2.09,2.09,0,0,0-.56.05A2.34,2.34,0,0,0,9.28,2.4V37.2H6.6a27,27,0,0,1-2-7.25V2.4A2.31,2.31,0,0,0,2.41,0h-.3L1.82.08A2.34,2.34,0,0,0,0,2.4V30.53c1,7.55,4.31,13.81,9.21,17L7,109.05a2.32,2.32,0,0,0,2.25,2.39h14a2.32,2.32,0,0,0,2.33-2.31.22.22,0,0,0,0-.08L23.28,47.57C28.18,44.34,31.49,38.08,32.48,30.53ZM19.87,44.38a2.33,2.33,0,0,0-1.31,2.18l2.25,60.24H11.68l2.24-60.24a2.31,2.31,0,0,0-1.3-2.18A10.62,10.62,0,0,1,9.5,41.84H23A10.62,10.62,0,0,1,19.87,44.38Z"/></g></g></svg>