<?xml version="1.0" encoding="UTF-8"?>
<svg width="37px" height="46px" viewBox="0 0 37 46" version="1.1" xmlns="http://www.w3.org/2000/svg" xmlns:xlink="http://www.w3.org/1999/xlink">
    <!-- Generator: Sketch 56.3 (81716) - https://sketch.com -->
    <title>Shape</title>
    <desc>Created with Sketch.</desc>
    <g id="Symbols-UX" stroke="none" stroke-width="1" fill="none" fill-rule="evenodd">
        <g id="Walk" transform="translate(0.000000, 1.000000)" fill="#4D4D4F" fill-rule="nonzero" stroke="#4D4D4F" stroke-width="0.6">
            <path d="M36.1759,8.3546 C36.1387699,8.15612064 36.0221457,7.98143416 35.8530689,7.87104517 C35.683992,7.76065618 35.4771488,7.72415313 35.2805,7.77 C33.8005,8.0919 32.2983,9.102 31.3844,9.7939 C30.9821423,8.80731606 30.405621,7.9011749 29.6824,7.1188 C29.4024469,6.812282 28.9270181,6.79074691 28.6205,7.07070004 C28.313982,7.35065316 28.2924469,7.82608196 28.5724,8.1326 C29.3975,9.028 31.9024,11.7364 29.6824,18.1226 C29.0126001,18.6586252 28.5860329,19.4411095 28.4984,20.2945 C28.1462368,20.2519686 27.8134277,20.4653187 27.7050549,20.8030807 C27.5966821,21.1408427 27.7432327,21.5079981 28.0544,21.6783 C28.3280408,21.8726257 28.5765944,22.1000523 28.7944,22.3554 C29.0150665,22.6540729 29.4229189,22.7429461 29.747844,22.5631604 C30.072769,22.3833748 30.2141274,21.9906155 30.0783,21.645 C30.0154,21.4341 29.5159,19.5804 31.2179,18.9662 C31.3816535,18.8877396 31.5721465,18.8877396 31.7359,18.9662 C32.3279,19.2918 32.6757,20.8347 32.9051,21.8596 C32.9569,22.0705 33.0013,22.274 33.0457,22.4627 C33.3121,23.5505 32.4019,24.4459 31.2771,25.4227 L31.1143,25.5633 C30.3482593,26.3067976 29.1842229,26.4573844 28.2542,25.9333 C27.5330119,25.3934277 26.8505405,24.8036834 26.2118,24.1684 C25.5569,23.5579 24.8798,22.9252 24.2545,22.4109 C24.0476254,22.2410381 23.765845,22.1944455 23.515303,22.2886732 C23.2647609,22.3829009 23.0835204,22.6036335 23.039853,22.8677232 C22.9961855,23.1318129 23.0967253,23.3991381 23.3036,23.569 C23.8919,24.0537 24.5505,24.679 25.1906,25.2636 C25.8965943,25.9713207 26.6574676,26.6220839 27.4661,27.2098 C27.9182535,27.4804024 28.4227098,27.6519175 28.9461,27.713 C28.7184209,28.1128138 28.3771712,28.4360352 27.9656,28.6417 C27.6615157,28.7895293 27.3087371,28.8003011 26.9962,28.6713 C26.308,28.3827 23.6662,26.307 19.1485,22.496 L18.5861,22.0224 C18.3772425,21.8551818 18.0950404,21.81209 17.8457965,21.9093568 C17.5965526,22.0066236 17.418133,22.2294718 17.3777465,22.4939568 C17.3373601,22.7584418 17.4411425,23.0243818 17.65,23.1916 L18.1902,23.68 C19.4963,24.79 20.6248,25.7187 21.5979,26.5179 C21.6423,28.1977 22.1233,30.6138 22.6376,33.1779 C23.274,36.3414 24.0621,40.2782 23.57,41.4918 C23.237,42.3095 22.7338,42.7609 22.1455,42.7646 L22.1455,42.7646 C21.726344,42.7708265 21.3419444,42.5323831 21.1613,42.1541 C20.98,41.6879 19.5703,36.3155 18.4344,31.9976 C17.5316,28.5603 16.6769,25.3117 16.3587,24.198 C16.2846746,23.9402329 16.0787551,23.7415383 15.8185095,23.6767626 C15.5582639,23.611987 15.2832297,23.6909712 15.0970095,23.8839626 C14.9107894,24.0769541 14.8416746,24.3546329 14.9157,24.6124 C15.0563,25.1008 15.2857,26.0221 15.615,27.2024 C12.7179,29.4224 6.3243,37.5291 6.2577,37.6142 C5.76721022,38.2823805 5.01461029,38.709168 4.1894,38.7871 C3.81599661,38.8431855 3.43477176,38.7658925 3.1127,38.5688 C2.8019,38.2765 2.2839,37.7881 3.2163,36.4635 C3.3088,36.334 12.655,22.8179 13.5023,20.646 C13.8019474,19.8569514 14.0334275,19.0436762 14.1942,18.2151 C14.6154791,16.2819336 15.1391502,14.3725101 15.763,12.4949 C17.5797,6.8746 20.1808,3.7259 24.7503,1.6169 C25.1262955,1.44320645 25.2902936,0.997595458 25.1166,0.6216 C24.9429064,0.245604542 24.4972955,0.0816064462 24.1213,0.2553 C19.1966,2.5271 16.2699,6.0495 14.3385,12.0324 C13.7003676,13.9441367 13.163127,15.8880832 12.729,17.8562 C12.5851454,18.6128874 12.375928,19.3556711 12.1037,20.0762 C11.4081,21.8485 3.2866,33.7181 1.9842,35.5718 C0.5967,37.5476 1.2738,38.8722 2.0841,39.6418 C2.6188222,40.0787335 3.29610387,40.3027371 3.9859,40.2708 C4.0895,40.2708 4.1968,40.2708 4.3004,40.2708 C5.54747994,40.1628156 6.68908557,39.5273936 7.438,38.5244 C9.0549,36.445 13.6466,30.8617 16.0331,28.7786 C16.3254,29.8886 16.651,31.1207 16.9803,32.375 C18.5972,38.5207 19.5888,42.2836 19.7738,42.735 C20.1847593,43.6750618 21.1158532,44.2802729 22.1418,44.2742453 L22.1418,44.2742453 C22.719,44.2742453 24.1435,44.0522 24.9464,42.0542 C25.6087,40.4225 24.8761,36.7632 24.0991,32.8856 C23.7291,31.0985 23.3591,29.2781 23.1963,27.8203 C24.8909,29.1671 25.9121,29.8849 26.4116,30.0958 C26.7337752,30.2308964 27.0797473,30.3000908 27.4291,30.2993 C27.8112134,30.2989557 28.189127,30.2195938 28.5391,30.0662 C29.644251,31.1238271 30.8670775,32.0511889 32.1836,32.8301 C32.4224877,32.9537324 32.6879247,33.0172341 32.9569,33.0151 C33.4036873,33.0002411 33.8335294,32.8405113 34.1816,32.56 C35.0585,31.9162 35.7985,30.4806 35.484,28.7342 C35.2293923,27.4248923 34.5537435,26.2347109 33.56,25.345 C34.3,24.5051 34.8513,23.4432 34.5294,22.1223 C34.485,21.9447 34.4406,21.7523 34.3962,21.5451 C34.0706,20.1058 33.6562,18.315 32.4796,17.6675 C32.177233,17.502429 31.8359646,17.421905 31.4917,17.4344 C32.1133,15.1774 32.2366333,13.1485667 31.8617,11.3479 C32.5351,10.8003 34.1631,9.5682 35.6098,9.25 C35.8048731,9.20856781 35.9749661,9.09015478 36.081536,8.92159322 C36.1881059,8.75303167 36.2221306,8.54859195 36.1759,8.3546 Z M34.0077,29.008 C34.2001,30.0625 33.7931,30.9875 33.2899,31.3612 C33.227,31.4056 33.0124,31.5462 32.8755,31.4759 C31.7602213,30.8094897 30.7195203,30.0255528 29.7712,29.1375 C30.1719281,28.6849263 30.4776744,28.1564759 30.6703,27.5835 C30.6703,27.5835 30.6703,27.5613 30.6703,27.5502 C31.2019253,27.36801 31.6923155,27.0825778 32.1133,26.7103 L32.2724,26.5697 L32.4722,26.3958 C33.2584327,27.073095 33.798349,27.9916031 34.0077,29.008 Z" id="Shape"></path>
        </g>
    </g>
</svg>