<svg xmlns="http://www.w3.org/2000/svg" viewBox="0 0 95.62 120.08"><defs><style>.cls-1{stroke:#000;stroke-miterlimit:10;}</style></defs><title>Walk</title><g id="Layer_2" data-name="Layer 2"><g id="Sample"><path class="cls-1" d="M95.07,22.58A2,2,0,0,0,92.65,21c-4,.87-8.06,3.6-10.53,5.47a24,24,0,0,0-4.6-7.23,2,2,0,0,0-3,2.74c2.23,2.42,9,9.74,3,27a8.65,8.65,0,0,0-3.2,5.87,2,2,0,0,0-1.2,3.74,11,11,0,0,1,2,1.83,2,2,0,0,0,3.47-1.92c-.17-.57-1.52-5.58,3.08-7.24a1.62,1.62,0,0,1,1.4,0c1.6.88,2.54,5.05,3.16,7.82.14.57.26,1.12.38,1.63.72,2.94-1.74,5.36-4.78,8l-.44.38a6.51,6.51,0,0,1-7.73,1,52.12,52.12,0,0,1-5.52-4.77c-1.77-1.65-3.6-3.36-5.29-4.75a2,2,0,1,0-2.57,3.13c1.59,1.31,3.37,3,5.1,4.58a51.23,51.23,0,0,0,6.15,5.26,10.06,10.06,0,0,0,4,1.36,6.28,6.28,0,0,1-2.65,2.51,3.2,3.2,0,0,1-2.62.08c-1.86-.78-9-6.39-21.21-16.69l-1.52-1.28A2,2,0,1,0,45,62.68L46.46,64c3.53,3,6.58,5.51,9.21,7.67.12,4.54,1.42,11.07,2.81,18,1.72,8.55,3.85,19.19,2.52,22.47-.9,2.21-2.26,3.43-3.85,3.44h0a2.9,2.9,0,0,1-2.66-1.65c-.49-1.26-4.3-15.78-7.37-27.45-2.44-9.29-4.75-18.07-5.61-21.08a2,2,0,1,0-3.9,1.12c.38,1.32,1,3.81,1.89,7-7.83,6-25.11,27.91-25.29,28.14a7.85,7.85,0,0,1-5.59,3.17,4.34,4.34,0,0,1-2.91-.59c-.84-.79-2.24-2.11.28-5.69.25-.35,25.51-36.88,27.8-42.75a39.93,39.93,0,0,0,1.87-6.57A151,151,0,0,1,39.9,33.77c4.91-15.19,11.94-23.7,24.29-29.4A2,2,0,1,0,62.49.69C49.18,6.83,41.27,16.35,36.05,32.52A155.5,155.5,0,0,0,31.7,48.26a36,36,0,0,1-1.69,6C28.13,59.05,6.18,91.13,2.66,96.14c-3.75,5.34-1.92,8.92.27,11a7.57,7.57,0,0,0,5.14,1.7c.28,0,.57,0,.85,0a11.86,11.86,0,0,0,8.48-4.72c4.37-5.62,16.78-20.71,23.23-26.34.79,3,1.67,6.33,2.56,9.72,4.37,16.61,7.05,26.78,7.55,28a6.94,6.94,0,0,0,6.4,4.16h0c1.56,0,5.41-.6,7.58-6,1.79-4.41-.19-14.3-2.29-24.78-1-4.83-2-9.75-2.44-13.69,4.58,3.64,7.34,5.58,8.69,6.15a7.07,7.07,0,0,0,2.75.55,7.49,7.49,0,0,0,3-.63,54.06,54.06,0,0,0,9.85,7.47,4.47,4.47,0,0,0,2.09.5A5.57,5.57,0,0,0,89.68,88c2.37-1.74,4.37-5.62,3.52-10.34A16.53,16.53,0,0,0,88,68.5c2-2.27,3.49-5.14,2.62-8.71-.12-.48-.24-1-.36-1.56-.88-3.89-2-8.73-5.18-10.48a5.18,5.18,0,0,0-2.67-.63q2.52-9.15,1-16.45c1.82-1.48,6.22-4.81,10.13-5.67A2,2,0,0,0,95.07,22.58ZM89.21,78.4c.52,2.85-.58,5.35-1.94,6.36-.17.12-.75.5-1.12.31a49.18,49.18,0,0,1-8.39-6.32,12.2,12.2,0,0,0,2.43-4.2s0-.06,0-.09a11.53,11.53,0,0,0,3.9-2.27l.43-.38.54-.47A12.7,12.7,0,0,1,89.21,78.4Z"/></g></g></svg>