<?xml version="1.0" encoding="UTF-8"?>
<svg width="36px" height="45px" viewBox="0 0 36 45" version="1.1" xmlns="http://www.w3.org/2000/svg" xmlns:xlink="http://www.w3.org/1999/xlink">
    <!-- Generator: Sketch 56.3 (81716) - https://sketch.com -->
    <title>Shape</title>
    <desc>Created with Sketch.</desc>
    <g id="Symbols-UX" stroke="none" stroke-width="1" fill="none" fill-rule="evenodd">
        <g id="Walk-Inactive" fill="#CFCFCF" fill-rule="nonzero" stroke="#CFCFCF" stroke-width="0.3">
            <g id="A-Walk">
                <path d="M35.1759,8.3546 C35.1387699,8.15612064 35.0221457,7.98143416 34.8530689,7.87104517 C34.683992,7.76065618 34.4771488,7.72415313 34.2805,7.77 C32.8005,8.0919 31.2983,9.102 30.3844,9.7939 C29.9821423,8.80731606 29.405621,7.9011749 28.6824,7.1188 C28.4024469,6.812282 27.9270181,6.79074691 27.6205,7.07070004 C27.313982,7.35065316 27.2924469,7.82608196 27.5724,8.1326 C28.3975,9.028 30.9024,11.7364 28.6824,18.1226 C28.0126001,18.6586252 27.5860329,19.4411095 27.4984,20.2945 C27.1462368,20.2519686 26.8134277,20.4653187 26.7050549,20.8030807 C26.5966821,21.1408427 26.7432327,21.5079981 27.0544,21.6783 C27.3280408,21.8726257 27.5765944,22.1000523 27.7944,22.3554 C28.0150665,22.6540729 28.4229189,22.7429461 28.747844,22.5631604 C29.072769,22.3833748 29.2141274,21.9906155 29.0783,21.645 C29.0154,21.4341 28.5159,19.5804 30.2179,18.9662 C30.3816535,18.8877396 30.5721465,18.8877396 30.7359,18.9662 C31.3279,19.2918 31.6757,20.8347 31.9051,21.8596 C31.9569,22.0705 32.0013,22.274 32.0457,22.4627 C32.3121,23.5505 31.4019,24.4459 30.2771,25.4227 L30.1143,25.5633 C29.3482593,26.3067976 28.1842229,26.4573844 27.2542,25.9333 C26.5330119,25.3934277 25.8505405,24.8036834 25.2118,24.1684 C24.5569,23.5579 23.8798,22.9252 23.2545,22.4109 C23.0476254,22.2410381 22.765845,22.1944455 22.515303,22.2886732 C22.2647609,22.3829009 22.0835204,22.6036335 22.039853,22.8677232 C21.9961855,23.1318129 22.0967253,23.3991381 22.3036,23.569 C22.8919,24.0537 23.5505,24.679 24.1906,25.2636 C24.8965943,25.9713207 25.6574676,26.6220839 26.4661,27.2098 C26.9182535,27.4804024 27.4227098,27.6519175 27.9461,27.713 C27.7184209,28.1128138 27.3771712,28.4360352 26.9656,28.6417 C26.6615157,28.7895293 26.3087371,28.8003011 25.9962,28.6713 C25.308,28.3827 22.6662,26.307 18.1485,22.496 L17.5861,22.0224 C17.3772425,21.8551818 17.0950404,21.81209 16.8457965,21.9093568 C16.5965526,22.0066236 16.418133,22.2294718 16.3777465,22.4939568 C16.3373601,22.7584418 16.4411425,23.0243818 16.65,23.1916 L17.1902,23.68 C18.4963,24.79 19.6248,25.7187 20.5979,26.5179 C20.6423,28.1977 21.1233,30.6138 21.6376,33.1779 C22.274,36.3414 23.0621,40.2782 22.57,41.4918 C22.237,42.3095 21.7338,42.7609 21.1455,42.7646 L21.1455,42.7646 C20.726344,42.7708265 20.3419444,42.5323831 20.1613,42.1541 C19.98,41.6879 18.5703,36.3155 17.4344,31.9976 C16.5316,28.5603 15.6769,25.3117 15.3587,24.198 C15.2846746,23.9402329 15.0787551,23.7415383 14.8185095,23.6767626 C14.5582639,23.611987 14.2832297,23.6909712 14.0970095,23.8839626 C13.9107894,24.0769541 13.8416746,24.3546329 13.9157,24.6124 C14.0563,25.1008 14.2857,26.0221 14.615,27.2024 C11.7179,29.4224 5.3243,37.5291 5.2577,37.6142 C4.76721022,38.2823805 4.01461029,38.709168 3.1894,38.7871 C2.81599661,38.8431855 2.43477176,38.7658925 2.1127,38.5688 C1.8019,38.2765 1.2839,37.7881 2.2163,36.4635 C2.3088,36.334 11.655,22.8179 12.5023,20.646 C12.8019474,19.8569514 13.0334275,19.0436762 13.1942,18.2151 C13.6154791,16.2819336 14.1391502,14.3725101 14.763,12.4949 C16.5797,6.8746 19.1808,3.7259 23.7503,1.6169 C24.1262955,1.44320645 24.2902936,0.997595458 24.1166,0.6216 C23.9429064,0.245604542 23.4972955,0.0816064462 23.1213,0.2553 C18.1966,2.5271 15.2699,6.0495 13.3385,12.0324 C12.7003676,13.9441367 12.163127,15.8880832 11.729,17.8562 C11.5851454,18.6128874 11.375928,19.3556711 11.1037,20.0762 C10.4081,21.8485 2.2866,33.7181 0.9842,35.5718 C-0.4033,37.5476 0.2738,38.8722 1.0841,39.6418 C1.6188222,40.0787335 2.29610387,40.3027371 2.9859,40.2708 C3.0895,40.2708 3.1968,40.2708 3.3004,40.2708 C4.54747994,40.1628156 5.68908557,39.5273936 6.438,38.5244 C8.0549,36.445 12.6466,30.8617 15.0331,28.7786 C15.3254,29.8886 15.651,31.1207 15.9803,32.375 C17.5972,38.5207 18.5888,42.2836 18.7738,42.735 C19.1847593,43.6750618 20.1158532,44.2802729 21.1418,44.2742453 L21.1418,44.2742453 C21.719,44.2742453 23.1435,44.0522 23.9464,42.0542 C24.6087,40.4225 23.8761,36.7632 23.0991,32.8856 C22.7291,31.0985 22.3591,29.2781 22.1963,27.8203 C23.8909,29.1671 24.9121,29.8849 25.4116,30.0958 C25.7337752,30.2308964 26.0797473,30.3000908 26.4291,30.2993 C26.8112134,30.2989557 27.189127,30.2195938 27.5391,30.0662 C28.644251,31.1238271 29.8670775,32.0511889 31.1836,32.8301 C31.4224877,32.9537324 31.6879247,33.0172341 31.9569,33.0151 C32.4036873,33.0002411 32.8335294,32.8405113 33.1816,32.56 C34.0585,31.9162 34.7985,30.4806 34.484,28.7342 C34.2293923,27.4248923 33.5537435,26.2347109 32.56,25.345 C33.3,24.5051 33.8513,23.4432 33.5294,22.1223 C33.485,21.9447 33.4406,21.7523 33.3962,21.5451 C33.0706,20.1058 32.6562,18.315 31.4796,17.6675 C31.177233,17.502429 30.8359646,17.421905 30.4917,17.4344 C31.1133,15.1774 31.2366333,13.1485667 30.8617,11.3479 C31.5351,10.8003 33.1631,9.5682 34.6098,9.25 C34.8048731,9.20856781 34.9749661,9.09015478 35.081536,8.92159322 C35.1881059,8.75303167 35.2221306,8.54859195 35.1759,8.3546 Z M33.0077,29.008 C33.2001,30.0625 32.7931,30.9875 32.2899,31.3612 C32.227,31.4056 32.0124,31.5462 31.8755,31.4759 C30.7602213,30.8094897 29.7195203,30.0255528 28.7712,29.1375 C29.1719281,28.6849263 29.4776744,28.1564759 29.6703,27.5835 C29.6703,27.5835 29.6703,27.5613 29.6703,27.5502 C30.2019253,27.36801 30.6923155,27.0825778 31.1133,26.7103 L31.2724,26.5697 L31.4722,26.3958 C32.2584327,27.073095 32.798349,27.9916031 33.0077,29.008 Z" id="Shape"></path>
            </g>
        </g>
    </g>
</svg>