<?xml version="1.0" encoding="UTF-8"?>
<svg width="17px" height="16px" viewBox="0 0 17 16" version="1.1" xmlns="http://www.w3.org/2000/svg" xmlns:xlink="http://www.w3.org/1999/xlink">
    <!-- Generator: Sketch 56.3 (81716) - https://sketch.com -->
    <title>Shape</title>
    <desc>Created with Sketch.</desc>
    <defs>
        <linearGradient x1="0%" y1="91.3679276%" x2="63.5648354%" y2="8.63207236%" id="linearGradient-1">
            <stop stop-color="#0DB14B" offset="0%"></stop>
            <stop stop-color="#00A3B4" offset="100%"></stop>
        </linearGradient>
    </defs>
    <g id="Symbols-UX" stroke="none" stroke-width="1" fill="none" fill-rule="evenodd">
        <g id="icon/active-like" fill="url(#linearGradient-1)" fill-rule="nonzero">
            <path d="M14.1904,5.1456 L10.6432,5.1456 L10.6432,2.7536 C10.6432,1.7312 10.3232,0.9936 9.7072,0.5712 C8.7216,-0.1264 7.36,0.2688 7.2928,0.2928 C7.12343085,0.338269968 7.00342899,0.488758783 6.9968,0.664 L6.9968,3.36 C6.9968,4.2432 6.5536,4.9856 5.6912,5.5664 C5.25842285,5.85262925 4.78478292,6.07164726 4.2864,6.216 C4.21345931,6.24097125 4.14646052,6.28073476 4.0896,6.3328 C3.85037827,6.01815362 3.47517759,5.83679671 3.08,5.8448 L1.256,5.8448 C0.584822393,5.8285715 0.025188239,6.35469889 0,7.0256 L0,13.5504 C0.0234810545,14.2225649 0.583620066,14.750594 1.256,14.7344 L3.08,14.7344 C3.4312688,14.7282012 3.76658202,14.5866245 4.016,14.3392 C4.46391315,14.8488046 5.11197465,15.1374813 5.7904,15.1296 L12.7872,15.1296 C14.3392,15.1296 15.3472,14.3632 15.5216,13.016 L16.4576,7.416 L16.4576,7.2992 C16.48,6.0976 15.472,5.1456 14.1904,5.1456 Z M3.3696147,13.5504 C3.37005514,13.6496789 3.33037755,13.7449299 3.25957605,13.8145263 C3.18877455,13.8841227 3.09285646,13.9221593 2.9936,13.92 L1.256,13.92 C1.15674354,13.9221593 1.06082545,13.8841227 0.990023949,13.8145263 C0.919222448,13.7449299 0.879544863,13.6496789 0.879985296,13.5504 L0.879985296,7.0256 C0.879110651,6.92604449 0.918597008,6.8303767 0.989446975,6.7604312 C1.06029694,6.6904857 1.15646413,6.65223169 1.256,6.6544 L2.9936,6.6544 C3.09313587,6.65223169 3.18930306,6.6904857 3.26015303,6.7604312 C3.33100299,6.8303767 3.37048935,6.92604449 3.3696147,7.0256 L3.3696147,13.5504 Z" id="Shape"></path>
        </g>
    </g>
</svg>