<svg xmlns="http://www.w3.org/2000/svg" viewBox="0 0 121.86 121.08"><defs><style>.cls-1{stroke:#000;stroke-miterlimit:10;stroke-width:3px;}.cls-2{fill:#fff;}</style></defs><title>active comment icon</title><g id="Layer_2" data-name="Layer 2"><g id="Sample"><path class="cls-1" d="M68.21,1.87C35.79-1.4,6,17.48,2,44-1,63.22,10.7,82.31,31.18,92v25a2.66,2.66,0,0,0,1.68,2.46,2.69,2.69,0,0,0,1,.18,2.61,2.61,0,0,0,1.92-.83L55,98.26c2,.17,4,.27,6,.27,29.49,0,55.18-18,59-42.45,1.71-11.15-1.38-22.51-8.71-32C101.64,11.76,86,3.65,68.21,1.87Z"/><path class="cls-2" d="M62.13,40.73A9.9,9.9,0,1,0,72,50.63,9.91,9.91,0,0,0,62.13,40.73Z"/><path class="cls-2" d="M86.93,40.73a9.9,9.9,0,1,0,9.89,9.9A9.91,9.91,0,0,0,86.93,40.73Z"/><path class="cls-2" d="M37.34,40.73a9.9,9.9,0,1,0,9.89,9.9A9.91,9.91,0,0,0,37.34,40.73Z"/></g></g></svg>