<svg xmlns="http://www.w3.org/2000/svg" viewBox="0 0 102.86 93.56"><title>active like_1</title><g id="Layer_2" data-name="Layer 2"><g id="Sample"><path d="M88.69,31.16H66.52V16.21c0-6.39-2-11-5.85-13.64C54.51-1.79,46,.68,45.58.83a2.5,2.5,0,0,0-1.85,2.32V20c0,5.52-2.77,10.16-8.16,13.79a32.11,32.11,0,0,1-8.78,4.06,3.5,3.5,0,0,0-1.23.73,7.73,7.73,0,0,0-6.31-3.05H7.85A7.67,7.67,0,0,0,0,42.91V83.69a7.67,7.67,0,0,0,7.85,7.4h11.4a8.52,8.52,0,0,0,5.85-2.47,14.54,14.54,0,0,0,11.09,4.94H79.92c9.7,0,16-4.79,17.09-13.21l5.85-35v-.73C103,37.11,96.7,31.16,88.69,31.16ZM21.06,83.69A2.3,2.3,0,0,1,18.71,86H7.85A2.3,2.3,0,0,1,5.5,83.69V42.91a2.3,2.3,0,0,1,2.35-2.32H18.71a2.3,2.3,0,0,1,2.35,2.32Z"/></g></g></svg>