<svg xmlns="http://www.w3.org/2000/svg" viewBox="0 0 89.88 85.81"><defs><style>.cls-1{stroke:#000;stroke-miterlimit:10;stroke-width:2.5px;}</style></defs><title>active favorite</title><g id="Layer_2" data-name="Layer 2"><g id="Sample"><path class="cls-1" d="M87.25,36.12c2.36-2.3,1.62-4.54-1.64-5l-20.37-3a12.67,12.67,0,0,1-8.55-6.21L47.58,3.47c-1.46-3-3.82-3-5.28,0L33.19,21.93a12.64,12.64,0,0,1-8.54,6.21l-20.38,3c-3.27.48-4,2.72-1.63,5L17.38,50.5a12.64,12.64,0,0,1,3.26,10L17.16,80.83c-.55,3.26,1.36,4.64,4.28,3.11l18.22-9.59a12.72,12.72,0,0,1,10.56,0l18.23,9.59c2.92,1.53,4.83.14,4.27-3.11L69.24,60.54a12.66,12.66,0,0,1,3.26-10Z"/></g></g></svg>