<svg xmlns="http://www.w3.org/2000/svg" viewBox="0 0 110.9 105.46"><defs><style>.cls-1{stroke:#000;stroke-miterlimit:10;stroke-width:2px;}</style></defs><title>cloud</title><g id="Layer_2" data-name="Layer 2"><g id="Sample"><path class="cls-1" d="M74.51,6.45A35.37,35.37,0,0,1,77.3,77.08a27.06,27.06,0,0,1-43.92-.42,24.32,24.32,0,0,1-5.15.57A27.15,27.15,0,0,1,17.61,25.06,27,27,0,0,1,63.06,8.38,35,35,0,0,1,74.51,6.45Zm29.95,35.39A30,30,0,0,0,74.51,11.89,29.56,29.56,0,0,0,63.4,14.07a2.73,2.73,0,0,1-3-.67A21.63,21.63,0,0,0,22.9,27.12a2.73,2.73,0,0,1-1.81,2.43,21.71,21.71,0,0,0,7.14,42.24,21.16,21.16,0,0,0,5.65-.86,2.71,2.71,0,0,1,3,1.21,21.62,21.62,0,0,0,36.64.79,2.71,2.71,0,0,1,2.16-1.21A30,30,0,0,0,104.46,41.84ZM28.23,93.57A5.45,5.45,0,1,0,22.78,99,5.45,5.45,0,0,0,28.23,93.57Zm5.44,0A10.89,10.89,0,1,1,22.78,82.68,10.9,10.9,0,0,1,33.67,93.57Z"/></g></g></svg>