<?xml version="1.0" encoding="UTF-8"?>
<svg width="21px" height="20px" viewBox="0 0 21 20" version="1.1" xmlns="http://www.w3.org/2000/svg" xmlns:xlink="http://www.w3.org/1999/xlink">
    <!-- Generator: Sketch 56.3 (81716) - https://sketch.com -->
    <title>Shape</title>
    <desc>Created with Sketch.</desc>
    <g id="Symbols-UX" stroke="none" stroke-width="1" fill="none" fill-rule="evenodd">
        <g id="icon/cloud" transform="translate(1.000000, 1.000000)" fill="#979797" fill-rule="nonzero" stroke="#979797" stroke-width="0.5">
            <path d="M13.2320789,0.990679024 C16.6506743,0.990422426 19.4592606,3.69005255 19.5941954,7.10598392 C19.7291303,10.5219153 17.1422426,13.4346754 13.7342789,13.704079 C12.8068378,14.9667029 11.3286852,15.7061571 9.76211513,15.6911762 C8.1955451,15.6761953 6.73180405,14.9086083 5.8286789,13.628479 C5.52421414,13.695592 5.21345087,13.7299872 4.9016789,13.731079 C2.57310841,13.7378396 0.563195885,12.1007132 0.0987041187,9.81893019 C-0.365787648,7.53714719 0.84417298,5.24456642 2.9900789,4.34047902 C3.18779873,2.50186525 4.41181591,0.934768666 6.14781422,0.297663017 C7.88381252,-0.339442632 9.83095554,0.0638486316 11.1710789,1.33807902 C11.8339441,1.10833309 12.5305281,0.990917623 13.2320789,0.990679024 Z M18.6230789,7.36087902 C18.6181242,4.38556667 16.2073913,1.97483376 13.2320789,1.96987902 C12.5464224,1.97060665 11.8673693,2.10385019 11.2322789,2.36227902 C11.0445985,2.43686418 10.8303946,2.38902532 10.6922789,2.24167902 C9.62603638,1.08701607 7.97012351,0.686653127 6.49414654,1.2266639 C5.01816957,1.76667468 4.01160996,3.14114755 3.9422789,4.71127902 C3.9319821,4.90949692 3.80344931,5.08205752 3.6164789,5.14867902 C1.80804785,5.77052974 0.715322419,7.60980651 1.03405504,9.495418 C1.35278767,11.3810295 2.98933193,12.7589666 4.9016789,12.751879 C5.24611941,12.7465071 5.58823909,12.6944323 5.9186789,12.597079 C6.1270227,12.5425087 6.34649746,12.6310302 6.4586789,12.814879 C7.14549724,13.9662273 8.37657928,14.6829882 9.71691025,14.7118872 C11.0572412,14.7407863 12.3180732,14.0777539 13.0538789,12.957079 C13.1408037,12.8260616 13.2855515,12.7449761 13.4426789,12.739279 C16.330577,12.6217552 18.6139081,10.2511529 18.6230789,7.36087902 Z M4.90168555,16.672279 C4.90313617,16.2751772 4.66504934,15.9163656 4.29859253,15.7633905 C3.93213572,15.6104154 3.50960103,15.6934547 3.22829006,15.9737333 C2.94697909,16.254012 2.86238695,16.6762385 3.01401376,17.0432552 C3.16564057,17.410272 3.52357441,17.649679 3.9206789,17.649679 C4.46106746,17.649679 4.89969582,17.2126639 4.90168555,16.672279 Z M5.8808789,16.672279 C5.8808789,17.7548676 5.00326747,18.632479 3.9206789,18.632479 C2.83809034,18.632479 1.9604789,17.7548676 1.9604789,16.672279 C1.9604789,15.5896905 2.83809034,14.712079 3.9206789,14.712079 C5.00285615,14.7130714 5.87988653,15.5901018 5.8808789,16.672279 Z" id="Shape"></path>
        </g>
    </g>
</svg>