<?xml version="1.0" encoding="UTF-8"?>
<svg width="17px" height="17px" viewBox="0 0 17 17" version="1.1" xmlns="http://www.w3.org/2000/svg" xmlns:xlink="http://www.w3.org/1999/xlink">
    <!-- Generator: Sketch 56.3 (81716) - https://sketch.com -->
    <title>Group</title>
    <desc>Created with Sketch.</desc>
    <g id="Symbols-UX" stroke="none" stroke-width="1" fill="none" fill-rule="evenodd">
        <g id="icon/active-comment" transform="translate(1.000000, 1.000000)" fill-rule="nonzero">
            <g id="Group" transform="translate(0.069462, 0.065244)">
                <path d="M8.66783785,0.0478556461 C4.45323785,-0.377244354 0.580537854,2.07715565 0.0605378536,5.52475565 C-0.329462146,8.02335565 1.19153785,10.5050556 3.85393785,11.7647556 L3.85393785,15.0147556 C3.85462287,15.1559461 3.9410767,15.2825392 4.07233785,15.3345556 C4.11379124,15.3505431 4.15791149,15.3584847 4.20233785,15.3579804 C4.29694205,15.3583591 4.38741879,15.3192467 4.45193785,15.2500556 L6.95053785,12.5785556 C7.21053785,12.6006556 7.47053785,12.6136556 7.73053785,12.6136556 C11.5642379,12.6136556 14.9039379,10.2736556 15.4005379,7.09515565 C15.6228379,5.64565565 15.2211379,4.16885565 14.2682379,2.93515565 C13.0137379,1.33355565 10.9805379,0.279255646 8.66783785,0.0478556461 Z" id="Path" stroke="#4D4D4F" stroke-width="0.5" fill="#4D4D4F"></path>
                <path d="M7.87743785,5.0996497 C7.35654295,5.09807717 6.88606043,5.41064188 6.68562788,5.89143372 C6.48519534,6.37222556 6.59434086,6.92642566 6.96211153,7.29531417 C7.32988219,7.66420268 7.8837485,7.77502963 8.36514641,7.57605716 C8.84654432,7.37708469 9.16053785,6.90755294 9.16053785,6.38665565 C9.15982821,5.6776803 8.58640778,5.10251695 7.87743785,5.0996497 L7.87743785,5.0996497 Z" id="Path" fill="#FFFFFF"></path>
                <path d="M11.1014379,5.09965498 C10.580777,5.09912973 10.1110912,5.41236355 9.91147842,5.89324062 C9.7118656,6.37411769 9.82165474,6.92789243 10.1896317,7.29624145 C10.5576086,7.66459047 11.1112721,7.77493921 11.5923507,7.57581247 C12.0734293,7.37668574 12.3871379,6.9073168 12.3871379,6.38665565 C12.3864229,5.67666885 11.8114236,5.10108816 11.1014379,5.09965498 Z" id="Path" fill="#FFFFFF"></path>
                <path d="M4.65473785,5.09965498 C4.13407697,5.09912973 3.66439123,5.41236355 3.46477842,5.89324062 C3.2651656,6.37411769 3.37495474,6.92789243 3.74293169,7.29624145 C4.11090864,7.66459047 4.66457214,7.77493921 5.1456507,7.57581247 C5.62672926,7.37668574 5.94043785,6.9073168 5.94043785,6.38665565 C5.93972286,5.67666885 5.36472356,5.10108816 4.65473785,5.09965498 Z" id="Path" fill="#FFFFFF"></path>
            </g>
        </g>
    </g>
</svg>