<?xml version="1.0" encoding="UTF-8"?>
<svg width="25px" height="24px" viewBox="0 0 25 24" version="1.1" xmlns="http://www.w3.org/2000/svg" xmlns:xlink="http://www.w3.org/1999/xlink">
    <!-- Generator: Sketch 56.3 (81716) - https://sketch.com -->
    <title>Path</title>
    <desc>Created with Sketch.</desc>
    <defs>
        <linearGradient x1="0%" y1="95.4838022%" x2="63.5648354%" y2="4.51619783%" id="linearGradient-1">
            <stop stop-color="#0DB14B" offset="0%"></stop>
            <stop stop-color="#00A3B4" offset="100%"></stop>
        </linearGradient>
    </defs>
    <g id="Symbols-UX" stroke="none" stroke-width="1" fill="none" fill-rule="evenodd">
        <g id="icon/filled-favorite" fill="url(#linearGradient-1)" fill-rule="nonzero">
            <path d="M23.8002084,9.69026062 C24.4514891,9.0555379 24.247274,8.43737317 23.3476235,8.31042863 L17.726188,7.48252944 C16.7276286,7.28218154 15.8660528,6.65640542 15.3666753,5.76877811 L12.8526214,0.679957729 C12.4497105,-0.147941465 11.7984298,-0.147941465 11.3955188,0.679957729 L8.88146495,5.77429743 C8.38353726,6.66203304 7.52270382,7.28800209 6.52471192,7.48804876 L0.900516728,8.31594796 C-0.0018933931,8.44841183 -0.203348864,9.06657656 0.450691499,9.69577995 L4.5184362,13.6586574 C5.20498088,14.4041722 5.53334348,15.4114194 5.41808666,16.4183214 L4.4577236,22.0287183 C4.30594208,22.9283687 4.8330379,23.3092024 5.63885978,22.8869738 L10.6669675,20.240456 C11.5924784,19.8181836 12.6556619,19.8181836 13.5811727,20.240456 L18.6120401,22.8869738 C19.417862,23.3092024 19.9449578,22.9256091 19.7904167,22.0287183 L18.8300536,16.4293601 C18.7155425,15.4225334 19.0438063,14.4155894 19.7297041,13.6696961 L23.8002084,9.69026062 Z" id="Path"></path>
        </g>
    </g>
</svg>