<svg xmlns="http://www.w3.org/2000/svg" viewBox="0 0 121.86 121.08"><defs><style>.cls-1{stroke:#000;stroke-miterlimit:10;stroke-width:3px;}</style></defs><title>inactive comment icon</title><g id="Layer_2" data-name="Layer 2"><g id="Sample"><path class="cls-1" d="M68.21,1.87C35.79-1.4,6,17.48,2,44-1,63.22,10.7,82.31,31.18,92v25a2.66,2.66,0,0,0,1.68,2.46,2.69,2.69,0,0,0,1,.18,2.61,2.61,0,0,0,1.92-.83L55,98.26c2,.17,4,.27,6,.27,29.49,0,55.18-18,59-42.45,1.71-11.15-1.38-22.51-8.71-32C101.64,11.76,86,3.65,68.21,1.87Zm46.47,53.41C111,79,83.91,95.91,54.19,92.9c-.07,0-.12,0-.18,0a2.47,2.47,0,0,0-.54,0,2.84,2.84,0,0,0-.44.1,2.3,2.3,0,0,0-.49.26,2.07,2.07,0,0,0-.38.28c-.06,0-.13.06-.17.11L36.47,110.27V90.37h0v0a181.3,181.3,0,0,0-.2-1A1.83,1.83,0,0,0,36,88.9a1.56,1.56,0,0,0-.27-.4,3.43,3.43,0,0,0-.58-.42c-.09,0-.16-.13-.25-.17C15.34,79.34,4.46,62.4,7.18,44.76,10.83,21,38,4.12,67.68,7.13,84,8.77,98.34,16.13,107,27.34,113.55,35.77,116.2,45.43,114.68,55.28Z"/><path d="M60.93,40.12A9.9,9.9,0,1,0,70.82,50,9.91,9.91,0,0,0,60.93,40.12Z"/><path d="M85.73,40.12A9.9,9.9,0,1,0,95.62,50,9.91,9.91,0,0,0,85.73,40.12Z"/><path d="M36.14,40.12A9.9,9.9,0,1,0,46,50,9.9,9.9,0,0,0,36.14,40.12Z"/></g></g></svg>