<?xml version="1.0" encoding="UTF-8"?>
<svg width="25px" height="23px" viewBox="0 0 25 23" version="1.1" xmlns="http://www.w3.org/2000/svg" xmlns:xlink="http://www.w3.org/1999/xlink">
    <!-- Generator: Sketch 56.3 (81716) - https://sketch.com -->
    <title>Shape</title>
    <desc>Created with Sketch.</desc>
    <g id="Symbols-UX" stroke="none" stroke-width="1" fill="none" fill-rule="evenodd">
        <g id="icon/outlined-favorite" fill="#4D4D4F" fill-rule="nonzero">
            <path d="M23.7340404,9.62646005 C24.3863976,8.98957371 24.1826971,8.37073678 23.2828051,8.23923394 L17.661703,7.42185349 C16.6641871,7.22179331 15.8035596,6.5965672 15.3049657,5.70973799 L12.7857837,0.612068782 C12.3835397,-0.205311662 11.7311824,-0.202733175 11.3289384,0.612068782 L8.81491339,5.70973799 C8.31496691,6.5964668 7.45364488,7.2215136 6.45559759,7.42185349 L0.831916998,8.23923394 C-0.0705535242,8.38105073 -0.269097039,8.9921522 0.385838711,9.62646005 L4.45211303,13.5921734 C5.14347765,14.3439468 5.472152,15.3601062 5.35200507,16.3743611 L4.39022934,21.9670998 C4.2380986,22.8644134 4.76668847,23.2563434 5.57117648,22.8231576 L10.601805,20.1776297 C11.5269937,19.7547022 12.5903069,19.7547022 13.5154956,20.1776297 L18.5461241,22.8205791 C19.3531906,23.243451 19.879202,22.8592564 19.7244928,21.9645213 L18.762717,16.3743611 C18.6467101,15.3631856 18.976085,14.3515341 19.6651875,13.6024873 L23.7340404,9.62646005 Z M17.3058718,13.5715455 C16.9531983,13.9579226 16.7840752,14.4775064 16.8417441,14.9974489 L17.661703,19.7263944 C17.7390576,20.1827867 17.4683164,20.3864872 17.0557585,20.1673157 L12.8089901,17.9214534 C12.3324729,17.7036458 11.7848277,17.7036458 11.3083105,17.9214534 L7.07185603,20.1544233 C6.66187657,20.3710162 6.38597844,20.1750512 6.46333305,19.713502 L7.27297804,14.9974489 C7.33237097,14.4773312 7.16302068,13.9570495 6.80885034,13.5715455 L3.38204084,10.2195121 C3.05199448,9.89720121 3.149977,9.57231182 3.61410469,9.50527115 L8.35078569,8.81681507 C8.86344609,8.71087606 9.30582363,8.38965925 9.56525316,7.93497245 L11.6821912,3.64436974 C11.8858916,3.2292333 12.226252,3.22407632 12.4325309,3.64436974 L14.5520474,7.93497245 C14.8091058,8.39067371 15.2512554,8.71240807 15.7639364,8.81681507 L20.4980389,9.5155851 C20.9544311,9.58262577 21.0653061,9.90235818 20.7301028,10.2298261 L17.3058718,13.5715455 Z" id="Shape"></path>
        </g>
    </g>
</svg>