<?xml version="1.0" encoding="UTF-8"?>
<svg width="18px" height="18px" viewBox="0 0 18 18" version="1.1" xmlns="http://www.w3.org/2000/svg" xmlns:xlink="http://www.w3.org/1999/xlink">
    <!-- Generator: Sketch 56.3 (81716) - https://sketch.com -->
    <title>Shape</title>
    <desc>Created with Sketch.</desc>
    <g id="Symbols-UX" stroke="none" stroke-width="1" fill="none" fill-rule="evenodd">
        <g id="icon/inactive-like" transform="translate(1.000000, 1.000000)" fill="#4D4D4F" fill-rule="nonzero" stroke="#4D4D4F" stroke-width="0.5">
            <path d="M14.1904,5.2624 L10.6432,5.2624 L10.6432,2.7376 C10.6432,1.6592 10.3232,0.8752 9.7072,0.4336 C8.7216,-0.3008 7.36,0.1152 7.2928,0.1392 C7.1201936,0.192748034 7.00105341,0.350528281 6.9968,0.5312 L6.9968,3.3744 C6.9968,4.3072 6.5536,5.0912 5.6912,5.704 C5.26162343,6.00470936 4.78761798,6.23631338 4.2864,6.3904 C4.21286219,6.41640012 4.14575391,6.45786541 4.0896,6.512 C3.85822169,6.18493867 3.48059211,5.99283234 3.08,5.9984 L1.256,5.9984 C0.565183034,5.99926493 0.00439397194,6.55719647 0,7.248 L0,14.136 C0.00439397194,14.8268035 0.565183034,15.3847351 1.256,15.3856 L3.08,15.3856 C3.43507533,15.3776755 3.77218079,15.2278508 4.016,14.9696 C4.45156976,15.5007347 5.10351533,15.8070139 5.7904,15.8032352 L12.7872,15.8032352 C14.3392,15.8032352 15.3472,14.9936 15.5216,13.5632 L16.4576,7.656 L16.4576,7.5344 C16.468973,6.92924946 16.2339204,6.34546147 15.8063916,5.91702752 C15.3788628,5.48859358 14.7955732,5.25230683 14.1904,5.2624 Z M3.49921363,14.136 C3.50007675,14.2407884 3.45861669,14.3414939 3.38421689,14.4152913 C3.30981708,14.4890887 3.20877784,14.5297286 3.104,14.528053 L1.28,14.528053 C1.17522216,14.5297286 1.07418292,14.4890887 0.999783111,14.4152913 C0.925383306,14.3414939 0.883923255,14.2407884 0.8848,14.136 L0.8848,7.256 C0.881725399,7.14983723 0.922214268,7.04703779 0.996859476,6.97148596 C1.07150468,6.89593413 1.17380785,6.85420722 1.28,6.85594453 L3.104,6.85594453 C3.20877784,6.85427136 3.30981708,6.89491131 3.38421689,6.96870869 C3.45861669,7.04250607 3.50007675,7.14321157 3.49921363,7.248 L3.49921363,14.136 Z M14.7088,13.4496 L14.7088,13.4496 C14.5856,14.4544 13.944,14.9696721 12.8112,14.9696721 L5.8144,14.9696721 C5.42999937,14.9734442 5.06001948,14.8234291 4.78684461,14.5529589 C4.51366974,14.2824888 4.36,13.9140198 4.36,13.5296 L4.36,7.248 L4.4352,7.248 C4.47769638,7.25155575 4.52034579,7.24324742 4.5584,7.224 C4.7056,7.1744 7.8832,6.264 7.8832,3.3744 L7.8832,0.8752 C8.2288,0.8256 8.8192,0.8016 9.2384,1.096 C9.6336,1.3904 9.8304,1.9296 9.8304,2.7376 L9.8304,5.68 C9.83795129,5.90778489 10.0217639,6.09019439 10.2496,6.096 L14.216,6.096 C14.6001247,6.09258542 14.9696913,6.24279053 15.2425184,6.5132139 C15.5153455,6.78363726 15.6688,7.15186013 15.6688,7.536 L15.6688,7.56 L14.7088,13.4496 Z" id="Shape"></path>
        </g>
    </g>
</svg>