<svg xmlns="http://www.w3.org/2000/svg" viewBox="0 0 94.54 90.18"><defs><style>.cls-1{stroke:#000;stroke-miterlimit:10;}</style></defs><title>inactive favorite</title><g id="Layer_2" data-name="Layer 2"><g id="Sample"><path class="cls-1" d="M92.55,37.83c2.53-2.47,1.74-4.87-1.75-5.38L69,29.28a13.54,13.54,0,0,1-9.14-6.64L50.09,2.87C48.53-.3,46-.29,44.44,2.87L34.69,22.64a13.57,13.57,0,0,1-9.15,6.64L3.73,32.45C.23,33-.54,35.37,2,37.83L17.77,53.21A13.58,13.58,0,0,1,21.26,64L17.53,85.69c-.59,3.48,1.46,5,4.58,3.32L41.62,78.75a13.59,13.59,0,0,1,11.3,0L72.43,89c3.13,1.64,5.17.15,4.57-3.32L73.27,64a13.59,13.59,0,0,1,3.5-10.75ZM67.62,53.13a7.05,7.05,0,0,0-1.8,5.53L69,77c.3,1.77-.75,2.56-2.35,1.71L50.18,70a7,7,0,0,0-5.82,0L27.93,78.66c-1.59.84-2.66.08-2.36-1.71l3.14-18.29a7,7,0,0,0-1.8-5.53l-13.29-13c-1.28-1.25-.9-2.51.9-2.77l18.37-2.67a7.07,7.07,0,0,0,4.71-3.42l8.21-16.64c.79-1.61,2.11-1.63,2.91,0l8.22,16.64a7,7,0,0,0,4.7,3.42L80,37.4c1.77.26,2.2,1.5.9,2.77Z"/></g></g></svg>