<svg xmlns="http://www.w3.org/2000/svg" viewBox="0 0 104.86 100.77"><defs><style>.cls-1{stroke:#000;stroke-miterlimit:10;stroke-width:2px;}</style></defs><title>inavtive like</title><g id="Layer_2" data-name="Layer 2"><g id="Sample"><path class="cls-1" d="M89.69,33.89H67.52V18.11c0-6.74-2-11.64-5.85-14.4C55.51-.88,47,1.72,46.58,1.87a2.63,2.63,0,0,0-1.85,2.45V22.09c0,5.83-2.77,10.73-8.16,14.56a31.4,31.4,0,0,1-8.78,4.29,3.41,3.41,0,0,0-1.23.76,7.6,7.6,0,0,0-6.31-3.21H8.85A7.86,7.86,0,0,0,1,46.3V89.35a7.86,7.86,0,0,0,7.85,7.81h11.4a8.3,8.3,0,0,0,5.85-2.6,14.24,14.24,0,0,0,11.09,5.21H80.92c9.7,0,16-5.06,17.09-14l5.85-36.92v-.76A13.94,13.94,0,0,0,89.69,33.89ZM22.87,89.35A2.43,2.43,0,0,1,20.4,91.8H9a2.43,2.43,0,0,1-2.47-2.45v-43A2.43,2.43,0,0,1,9,43.85H20.4a2.43,2.43,0,0,1,2.47,2.45Zm70.06-4.29h0c-.77,6.28-4.78,9.5-11.86,9.5H37.34a9,9,0,0,1-9.09-9V46.3h.47a1.44,1.44,0,0,0,.77-.15c.92-.31,20.78-6,20.78-24.06V6.47c2.16-.31,5.85-.46,8.47,1.38,2.47,1.84,3.7,5.21,3.7,10.26V36.5a2.69,2.69,0,0,0,2.62,2.6H89.85a9,9,0,0,1,9.08,9v.15Z"/></g></g></svg>