<?xml version="1.0" encoding="UTF-8"?>
<svg width="20px" height="17px" viewBox="0 0 20 17" version="1.1" xmlns="http://www.w3.org/2000/svg" xmlns:xlink="http://www.w3.org/1999/xlink">
    <!-- Generator: Sketch 56.3 (81716) - https://sketch.com -->
    <title>camera</title>
    <desc>Created with Sketch.</desc>
    <g id="Symbols-UX" stroke="none" stroke-width="1" fill="none" fill-rule="evenodd">
        <g id="icon-camera" fill="#4D4D4F" fill-rule="nonzero">
            <g id="camera">
                <path d="M18.436432,4.87186 L18.436432,13.572392 C18.436432,13.946188 18.436432,14.321548 18.436432,14.695344 C18.436469,14.7664793 18.4317666,14.837538 18.422356,14.908048 C18.43174,14.85018 18.437996,14.793876 18.445816,14.736008 C18.4275765,14.8687339 18.3923589,14.9985663 18.341028,15.122316 L18.405152,14.965916 C18.3683105,15.0525909 18.3238213,15.1358118 18.272212,15.214592 C18.2580764,15.2388929 18.2418539,15.2619184 18.223728,15.283408 C18.223728,15.283408 18.331644,15.152032 18.273776,15.219284 C18.239368,15.25682 18.206524,15.29592 18.170552,15.331892 C18.13458,15.367864 18.101736,15.39758 18.067328,15.427296 C18.03292,15.457012 17.96254,15.482036 18.120504,15.386632 L18.062636,15.427296 C17.9798552,15.4813175 17.8924508,15.5278983 17.801448,15.566492 L17.957848,15.502368 C17.8334687,15.5534407 17.7031528,15.588647 17.569976,15.607156 L17.742016,15.583696 C17.5511227,15.599603 17.3594332,15.6037815 17.168028,15.596208 L2.285004,15.596208 C2.21080771,15.5958938 2.13667807,15.5917175 2.062916,15.583696 L2.234956,15.607156 C2.10173556,15.5888617 1.97139293,15.5536482 1.847084,15.502368 L2.003484,15.566492 C1.91630662,15.5296594 1.8325656,15.485172 1.753244,15.433552 C1.72909658,15.4197629 1.70608523,15.4040734 1.684428,15.386632 C1.684428,15.386632 1.815804,15.492984 1.748552,15.435116 C1.709452,15.400708 1.670352,15.369428 1.63438,15.331892 C1.598408,15.294356 1.570256,15.263076 1.538976,15.228668 C1.507696,15.19426 1.482672,15.127008 1.57964,15.283408 C1.567128,15.263076 1.553052,15.244308 1.538976,15.22554 C1.48377939,15.1440116 1.43713419,15.0570105 1.39978,14.965916 L1.463904,15.122316 C1.41284782,14.9983602 1.37713239,14.8686292 1.357552,14.736008 C1.366936,14.793876 1.373192,14.85018 1.382576,14.908048 C1.36846523,14.7656676 1.36376301,14.6225114 1.3685,14.479512 L1.3685,6.033912 C1.3685,5.650732 1.3685,5.265988 1.3685,4.884372 C1.36846297,4.81323674 1.37316538,4.74217805 1.382576,4.671668 C1.373192,4.729536 1.366936,4.784276 1.357552,4.843708 C1.37713037,4.71058038 1.41284377,4.5803315 1.463904,4.455836 L1.39978,4.612236 C1.4366215,4.52556106 1.48111065,4.44234018 1.53272,4.36356 C1.54633718,4.33930557 1.56203623,4.3162803 1.57964,4.294744 C1.57964,4.294744 1.471724,4.42612 1.531156,4.358868 C1.565564,4.321332 1.596844,4.282232 1.63438,4.24626 C1.671916,4.210288 1.703196,4.180572 1.737604,4.150856 C1.772012,4.12114 1.840828,4.096116 1.684428,4.19152 L1.742296,4.150856 C1.82488931,4.09651802 1.91232304,4.0499216 2.003484,4.01166 L1.847084,4.075784 C1.97139293,4.02450382 2.10173556,3.98929029 2.234956,3.970996 L2.062916,3.994456 C2.21474163,3.98087117 2.36726231,3.97669252 2.519604,3.981944 L5.445848,3.981944 C5.73355557,3.97627101 5.98544382,3.78735483 6.071448,3.512744 C6.26329867,2.99141067 6.45514933,2.46694933 6.647,1.93936 C6.681408,1.847084 6.714252,1.75168 6.753352,1.662532 L6.689228,1.818932 C6.72225765,1.74242409 6.76040126,1.66822695 6.8034,1.596844 C6.81876708,1.56911144 6.83601125,1.54246136 6.855012,1.51708 C6.947288,1.381012 6.775248,1.6031 6.855012,1.51708 C6.903496,1.465468 6.958236,1.418548 7.011412,1.36068 C6.917572,1.429496 6.898804,1.443572 6.95198,1.4076 L7.002028,1.37632 C7.03588331,1.35600605 7.07147337,1.3387344 7.10838,1.324708 L6.95198,1.388832 C7.01748513,1.36301548 7.08568769,1.34465325 7.1553,1.334092 L6.98326,1.359116 C7.19738818,1.34816922 7.41193582,1.34816922 7.626064,1.359116 L12.110052,1.359116 C12.3769591,1.34710345 12.6443411,1.35075906 12.91082,1.370064 L12.73878,1.346604 C12.8111932,1.35668905 12.8821002,1.37559758 12.94992,1.402908 L12.79352,1.338784 C12.845132,1.362244 12.890488,1.393524 12.938972,1.420112 C12.782572,1.335656 12.835748,1.335656 12.892052,1.390396 L12.948356,1.448264 C13.032812,1.537412 12.857644,1.315324 12.913948,1.404472 C12.932716,1.434188 12.953048,1.46234 12.970252,1.495184 C13.0098502,1.56368812 13.0448565,1.63474573 13.07504,1.707888 L13.010916,1.551488 C13.109448,1.787652 13.19234,2.031636 13.279924,2.272492 L13.6459,3.26876 C13.675616,3.348524 13.703768,3.42516 13.733484,3.506488 C13.8194882,3.78109883 14.0713764,3.97001501 14.359084,3.975688 L17.218076,3.975688 C17.3923242,3.96941627 17.5667944,3.97411756 17.740452,3.989764 L17.568412,3.966304 C17.7015888,3.98481296 17.8319047,4.02001927 17.956284,4.071092 L17.799884,4.006968 C17.8870614,4.04380062 17.9708024,4.08828804 18.050124,4.139908 C18.0747123,4.15297964 18.0977896,4.16871411 18.11894,4.186828 C18.11894,4.186828 17.987564,4.078912 18.054816,4.13678 C18.093916,4.171188 18.131452,4.204032 18.168988,4.240004 L18.264392,4.343228 C18.2988,4.383892 18.319132,4.446452 18.222164,4.290052 L18.264392,4.34792 C18.318722,4.42996912 18.3653204,4.51688311 18.403588,4.607544 L18.339464,4.451144 C18.3905367,4.57498173 18.4257453,4.70478056 18.444252,4.837452 C18.444252,4.779584 18.430176,4.72328 18.420792,4.665412 C18.420792,4.734228 18.43174,4.80148 18.434868,4.87186 C18.4518303,5.21667875 18.7363463,5.48754292 19.081582,5.48754292 C19.4268177,5.48754292 19.7113337,5.21667875 19.728296,4.87186 C19.7214145,4.09163013 19.3058774,3.37215723 18.633496,2.976292 C18.2430887,2.76612224 17.8034312,2.66457973 17.3604,2.68226 L14.354392,2.68226 L14.979992,3.15146 L14.59212,2.089504 C14.518612,1.887748 14.445104,1.685992 14.368468,1.4858 C14.2890112,1.22741823 14.1776283,0.9799591 14.0369,0.749156 C13.9088039,0.549858236 13.7384832,0.381139297 13.537984,0.254932 C13.3290967,0.139144219 13.0962343,0.0733003635 12.857644,0.0625056997 C12.779444,0.0625056997 12.701244,0.0625056997 12.626172,0.0625056997 L7.119328,0.0625056997 C6.87388483,0.0605564755 6.63115938,0.114020232 6.409272,0.21896 C5.791492,0.511428 5.549072,1.15736 5.331676,1.748552 L4.8484,3.062312 C4.837452,3.095156 4.82494,3.124872 4.813992,3.156152 L5.439592,2.686952 L3.171792,2.686952 C2.871504,2.686952 2.571216,2.686952 2.270928,2.686952 C1.44750183,2.68958577 0.693421687,3.14853871 0.3128,3.87872 C0.142815965,4.22940873 0.0576336783,4.61513984 0.064124,5.0048 L0.064124,13.63026 C0.064124,14.007184 0.051612,14.387236 0.064124,14.762596 C0.104534485,15.6983384 0.723733738,16.509789 1.615612,16.795796 C1.8627882,16.8682606 2.11980062,16.9015086 2.37728,16.894328 L16.705084,16.894328 C16.97722,16.894328 17.249356,16.894328 17.523056,16.894328 C18.3529199,16.8922937 19.1119011,16.4261572 19.489004,15.68692 C19.651482,15.3401625 19.7327838,14.960932 19.726732,14.578044 L19.726732,4.881244 C19.726732,4.52450561 19.4375384,4.235312 19.0808,4.235312 C18.7240616,4.235312 18.434868,4.52450561 18.434868,4.881244 L18.436432,4.87186 Z" id="Path"></path>
                <path d="M13.642772,9.357412 C13.6416864,9.55617511 13.6281049,9.75467335 13.602108,9.951732 C13.602108,9.893864 13.616184,9.83756 13.625568,9.779692 C13.5685919,10.1620634 13.4634916,10.5356952 13.312768,10.891696 L13.376892,10.735296 C13.2690786,10.9874781 13.1376378,11.2288893 12.984328,11.4563 C12.943664,11.51886 12.898308,11.58142 12.852952,11.640852 C12.807596,11.700284 12.749728,11.76128 12.885796,11.600188 C12.860772,11.62834 12.837312,11.658056 12.813852,11.689336 C12.727832,11.794124 12.635556,11.892656 12.538588,11.989624 C12.44162,12.086592 12.3556,12.177304 12.241428,12.264888 C12.224224,12.280528 12.177304,12.333704 12.153844,12.336832 C12.181996,12.336832 12.296168,12.228916 12.194508,12.303988 C12.138204,12.34778 12.080336,12.388444 12.022468,12.42598 C11.7903233,12.5823108 11.5436315,12.71587 11.285824,12.8248 L11.442224,12.760676 C11.0853698,12.9136038 10.7098975,13.0187781 10.325528,13.073476 L10.497568,13.050016 C10.099894,13.1016243 9.69721795,13.1016243 9.299544,13.050016 L9.473148,13.073476 C9.08853222,13.0175524 8.71269963,12.9124244 8.354888,12.760676 L8.511288,12.8248 C8.25834243,12.7177536 8.01591792,12.5873784 7.787156,12.435364 C7.724596,12.393136 7.662036,12.349344 7.60104,12.303988 C7.540044,12.258632 7.480612,12.200764 7.641704,12.335268 L7.55412,12.264888 C7.44820867,12.1785357 7.34692912,12.0866532 7.250704,11.989624 C7.153736,11.89422 7.063024,11.794124 6.97544,11.689336 C6.9598,11.672132 6.906624,11.625212 6.903496,11.601752 C6.903496,11.629904 7.011412,11.744076 6.93634,11.642416 C6.892548,11.586112 6.851884,11.528244 6.812784,11.470376 C6.65617144,11.2392379 6.52209586,10.9936072 6.4124,10.73686 L6.476524,10.89326 C6.32436427,10.5377645 6.21921108,10.1639449 6.163724,9.781256 C6.173108,9.839124 6.179364,9.895428 6.188748,9.953296 C6.13557117,9.55781957 6.13557117,9.15700443 6.188748,8.761528 C6.179364,8.819396 6.173108,8.8757 6.163724,8.933568 C6.22048588,8.55115072 6.32559374,8.17749228 6.476524,7.821564 L6.4124,7.9764 C6.52054042,7.72387995 6.65196253,7.48197949 6.804964,7.253832 C6.845628,7.192836 6.890984,7.130276 6.93634,7.06928 C6.964492,7.031744 7.039564,6.948852 6.90506,7.109944 C6.92852,7.083356 6.95198,7.052076 6.97544,7.02236 C7.06146,6.917572 7.1553,6.81904 7.252268,6.722072 C7.349236,6.625104 7.447768,6.535956 7.55412,6.446808 C7.571324,6.432732 7.618244,6.377992 7.641704,6.376428 C7.615116,6.376428 7.49938,6.484344 7.60104,6.409272 C7.657344,6.36548 7.715212,6.324816 7.774644,6.285716 C8.00666295,6.13052565 8.2527752,5.9975203 8.509724,5.88846 L8.353324,5.954148 C8.71039609,5.80029796 9.08651001,5.69509127 9.471584,5.641348 L9.29798,5.664808 C9.69565395,5.61319969 10.09833,5.61319969 10.496004,5.664808 L10.3224,5.647604 C10.7064545,5.7037932 11.0817364,5.80891419 11.439096,5.960404 L11.282696,5.894716 C11.5357221,6.00324811 11.7785801,6.1340983 12.008392,6.285716 C12.070952,6.32638 12.133512,6.371736 12.192944,6.417092 C12.252376,6.462448 12.314936,6.520316 12.15228,6.384248 C12.180432,6.407708 12.210148,6.432732 12.241428,6.456192 C12.346216,6.542212 12.446312,6.634488 12.54328,6.729892 C12.640248,6.825296 12.73096,6.925392 12.820108,7.031744 C12.834184,7.047384 12.888924,7.095868 12.890488,7.119328 C12.890488,7.091176 12.782572,6.977004 12.857644,7.078664 C12.901436,7.133404 12.9421,7.191272 12.9812,7.250704 C13.1384965,7.47893526 13.2731187,7.72198843 13.383148,7.9764 L13.319024,7.82 C13.4720925,8.17517406 13.57728,8.54911558 13.631824,8.932004 C13.62244,8.874136 13.616184,8.817832 13.608364,8.759964 C13.6343606,8.95807085 13.6479418,9.15760967 13.649028,9.357412 C13.649028,9.71501417 13.9389218,10.004908 14.296524,10.004908 C14.6541262,10.004908 14.94402,9.71501417 14.94402,9.357412 C14.942612,8.32973784 14.6229923,7.32771615 14.02908,6.489036 C13.417296,5.63529334 12.5611955,4.98694717 11.5736,4.62944 C10.0934711,4.1059668 8.45388753,4.30271288 7.13962729,5.16150604 C5.82536706,6.02029919 4.9867976,7.44288299 4.87186,9.00864 C4.72922508,11.0836496 5.88482068,13.030604 7.774644,13.899268 C8.28528973,14.1276907 8.8281318,14.2759304 9.384,14.338752 C9.89890418,14.393129 10.4191281,14.3672761 10.926104,14.262116 C12.917076,13.869552 14.563968,12.180432 14.858,10.18164 C14.9016777,9.90899954 14.9252015,9.63351064 14.92838,9.357412 C14.92838,9.00067361 14.6391864,8.71148 14.282448,8.71148 C13.9257096,8.71148 13.636516,9.00067361 13.636516,9.357412 L13.642772,9.357412 Z" id="Path"></path>
            </g>
        </g>
    </g>
</svg>