<svg xmlns="http://www.w3.org/2000/svg" viewBox="0 0 126.53 108.4"><defs><style>.cls-1{stroke:#000;stroke-miterlimit:10;stroke-width:0.75px;}</style></defs><title>camera</title><g id="Layer_2" data-name="Layer 2"><g id="Sample"><path class="cls-1" d="M117.88,31.15V86.78c0,2.39,0,4.79,0,7.18a10.24,10.24,0,0,1-.09,1.36c.06-.37.1-.73.15-1.1a10,10,0,0,1-.67,2.47l.41-1a10.14,10.14,0,0,1-.85,1.59,3.1,3.1,0,0,1-.31.44s.69-.84.32-.41c-.22.24-.43.49-.66.72s-.44.42-.66.61-.67.35.34-.26l-.37.26a10.7,10.7,0,0,1-1.67.89l1-.41a10.24,10.24,0,0,1-2.48.67l1.1-.15a29.94,29.94,0,0,1-3.67.08H14.61a13.67,13.67,0,0,1-1.42-.08l1.1.15a10.11,10.11,0,0,1-2.48-.67l1,.41a10.24,10.24,0,0,1-1.6-.85,3.35,3.35,0,0,1-.44-.3s.84.68.41.31c-.25-.22-.5-.42-.73-.66s-.41-.44-.61-.66-.36-.65.26.35c-.08-.13-.17-.25-.26-.37a9.16,9.16,0,0,1-.89-1.66l.41,1a10.52,10.52,0,0,1-.68-2.47c.06.37.1.73.16,1.1a20.8,20.8,0,0,1-.09-2.74v-54c0-2.45,0-4.91,0-7.35a10.24,10.24,0,0,1,.09-1.36c-.06.37-.1.72-.16,1.1a10.6,10.6,0,0,1,.68-2.48l-.41,1a10.14,10.14,0,0,1,.85-1.59,3.07,3.07,0,0,1,.3-.44s-.69.84-.31.41c.22-.24.42-.49.66-.72s.44-.42.66-.61.66-.35-.34.26l.37-.26a10.27,10.27,0,0,1,1.67-.89l-1,.41a10.11,10.11,0,0,1,2.48-.67l-1.1.15a23.63,23.63,0,0,1,2.92-.08H34.82a4.28,4.28,0,0,0,4-3q1.84-5,3.68-10.06c.22-.59.43-1.2.68-1.77l-.41,1a11.87,11.87,0,0,1,.73-1.42,4.45,4.45,0,0,1,.33-.51c.59-.87-.51.55,0,0,.31-.33.66-.63,1-1-.6.44-.72.53-.38.3l.32-.2a4.27,4.27,0,0,1,.68-.33l-1,.41a6,6,0,0,1,1.3-.35l-1.1.16a40.25,40.25,0,0,1,4.11,0H77.43a43.68,43.68,0,0,1,5.12.07l-1.1-.15a5.73,5.73,0,0,1,1.35.36l-1-.41c.33.15.62.35.93.52-1-.54-.66-.54-.3-.19l.36.37c.54.57-.58-.85-.22-.28.12.19.25.37.36.58a11.43,11.43,0,0,1,.67,1.36l-.41-1c.63,1.51,1.16,3.07,1.72,4.61l2.34,6.37c.19.51.37,1,.56,1.52a4.28,4.28,0,0,0,4,3h18.28a26.57,26.57,0,0,1,3.34.09l-1.1-.15a10.24,10.24,0,0,1,2.48.67l-1-.41a10.24,10.24,0,0,1,1.6.85,2.43,2.43,0,0,1,.44.3s-.84-.69-.41-.32c.25.22.49.43.73.66l.61.66c.22.26.35.66-.27-.34l.27.37a10.17,10.17,0,0,1,.89,1.66l-.41-1a10.16,10.16,0,0,1,.67,2.47c0-.37-.09-.73-.15-1.1,0,.44.07.87.09,1.32a4.14,4.14,0,0,0,8.27,0,14.21,14.21,0,0,0-7-12.12A15.84,15.84,0,0,0,111,17.15H91.78l4,3-2.48-6.79c-.47-1.29-.94-2.58-1.43-3.86a20.78,20.78,0,0,0-2.12-4.71,10.34,10.34,0,0,0-3.19-3.16A9.89,9.89,0,0,0,82.21.4c-.5,0-1,0-1.48,0H45.52a10.42,10.42,0,0,0-4.54,1c-3.95,1.87-5.5,6-6.89,9.78L31,19.58c-.07.21-.15.4-.22.6l4-3H20.28c-1.92,0-3.84,0-5.76,0A14.17,14.17,0,0,0,2,24.8,15.9,15.9,0,0,0,.41,32V87.15c0,2.41-.08,4.84,0,7.24a14.3,14.3,0,0,0,9.92,13,15.75,15.75,0,0,0,4.87.63h91.61c1.74,0,3.48,0,5.23,0a14.15,14.15,0,0,0,12.57-7.72,16.11,16.11,0,0,0,1.52-7.09v-62a4.13,4.13,0,0,0-8.26,0Z"/><path class="cls-1" d="M87.23,59.83a30.32,30.32,0,0,1-.26,3.8c0-.37.09-.73.15-1.1a29.32,29.32,0,0,1-2,7.11l.41-1a27.79,27.79,0,0,1-2.51,4.61c-.26.4-.55.8-.84,1.18s-.66.77.21-.26c-.16.18-.31.37-.46.57-.55.67-1.14,1.3-1.76,1.92S79,77.86,78.27,78.42c-.11.1-.41.44-.56.46.18,0,.91-.69.26-.21-.36.28-.73.54-1.1.78A27.81,27.81,0,0,1,72.16,82l1-.41a28.22,28.22,0,0,1-7.14,2l1.1-.15a29.76,29.76,0,0,1-7.66,0l1.11.15a29,29,0,0,1-7.15-2l1,.41a28.28,28.28,0,0,1-4.63-2.49c-.4-.27-.8-.55-1.19-.84s-.77-.66.26.2l-.56-.45a24.83,24.83,0,0,1-1.94-1.76c-.62-.61-1.2-1.25-1.76-1.92-.1-.11-.44-.41-.46-.56,0,.18.69.91.21.26-.28-.36-.54-.73-.79-1.1A27.91,27.91,0,0,1,41,68.65l.41,1a28.44,28.44,0,0,1-2-7.11c.06.37.1.73.16,1.1a28.59,28.59,0,0,1,0-7.62c-.06.37-.1.73-.16,1.1a29.19,29.19,0,0,1,2-7.11L41,51a28.29,28.29,0,0,1,2.51-4.62c.26-.39.55-.79.84-1.18.18-.24.66-.77-.2.26.15-.17.3-.37.45-.56.55-.67,1.15-1.3,1.77-1.92s1.25-1.19,1.93-1.76c.11-.09.41-.44.56-.45-.17,0-.91.69-.26.21.36-.28.73-.54,1.11-.79a28.44,28.44,0,0,1,4.7-2.54l-1,.42a27.77,27.77,0,0,1,7.15-2l-1.11.15a29.76,29.76,0,0,1,7.66,0L66,36.11a29.08,29.08,0,0,1,7.14,2l-1-.42a29.65,29.65,0,0,1,4.64,2.5c.4.26.8.55,1.18.84s.78.66-.26-.21c.18.15.37.31.57.46.67.55,1.31,1.14,1.93,1.75s1.2,1.25,1.77,1.93c.09.1.44.41.45.56,0-.18-.69-.91-.21-.26.28.35.54.72.79,1.1A27.21,27.21,0,0,1,85.57,51l-.41-1a27.91,27.91,0,0,1,2,7.11c-.06-.37-.1-.73-.15-1.1a30.64,30.64,0,0,1,.26,3.82,4.14,4.14,0,0,0,8.28,0A31.81,31.81,0,0,0,89.7,41.49,33.23,33.23,0,0,0,74,29.6a32.2,32.2,0,0,0-42.85,28A32,32,0,0,0,49.71,88.87,34.76,34.76,0,0,0,60,91.68a32,32,0,0,0,9.86-.49C82.59,88.68,93.12,77.88,95,65.1a35.93,35.93,0,0,0,.45-5.27,4.13,4.13,0,0,0-8.26,0Z"/></g></g></svg>