<svg xmlns="http://www.w3.org/2000/svg" viewBox="0 0 113.78 117.21"><defs><style>.cls-1{stroke:#000;stroke-miterlimit:10;}</style></defs><title>copy icon</title><g id="Layer_2" data-name="Layer 2"><g id="Sample"><path class="cls-1" d="M106.78.5H28.7a6.62,6.62,0,0,0-6.51,6.7V22.85H7A6.62,6.62,0,0,0,.5,29.55V110A6.61,6.61,0,0,0,7,116.71H85.09a6.6,6.6,0,0,0,6.5-6.7V94.36h15.19a6.61,6.61,0,0,0,6.5-6.7V7.2A6.62,6.62,0,0,0,106.78.5ZM87.26,110a2.21,2.21,0,0,1-2.17,2.23H7A2.2,2.2,0,0,1,4.84,110V29.55A2.2,2.2,0,0,1,7,27.32H85.09a2.21,2.21,0,0,1,2.17,2.23Zm21.68-22.35a2.2,2.2,0,0,1-2.16,2.23H91.59V29.55a6.61,6.61,0,0,0-6.5-6.7H26.53V7.2A2.2,2.2,0,0,1,28.7,5h78.08a2.2,2.2,0,0,1,2.16,2.23Z"/></g></g></svg>