<?xml version="1.0" encoding="UTF-8"?>
<svg width="19px" height="19px" viewBox="0 0 19 19" version="1.1" xmlns="http://www.w3.org/2000/svg" xmlns:xlink="http://www.w3.org/1999/xlink">
    <!-- Generator: Sketch 56.3 (81716) - https://sketch.com -->
    <title>Shape</title>
    <desc>Created with Sketch.</desc>
    <g id="Symbols-UX" stroke="none" stroke-width="1" fill="none" fill-rule="evenodd">
        <g id="icon/copy" transform="translate(1.000000, 1.000000)" fill="#4D4D4F" fill-rule="nonzero" stroke="#4D4D4F" stroke-width="0.5">
            <path d="M16.017,0.075 L4.305,0.075 C3.75833082,0.0840440368 3.32181802,0.533296842 3.3285,1.08 L3.3285,3.4275 L1.05,3.4275 C0.503920022,3.43735938 0.0683107732,3.88637199 0.0748820814,4.4325 L0.0748820814,16.5 C0.0666484037,17.0470388 0.502972172,17.4974592 1.05,17.5065 L12.7635,17.5065 C13.026074,17.5025518 13.2763217,17.3944426 13.4591761,17.2059619 C13.6420305,17.0174812 13.7425085,16.7640731 13.7385,16.5015 L13.7385,14.154 L16.017,14.154 C16.5634338,14.144957 16.9995159,13.6954569 16.9920957,13.149 L16.9920957,1.08 C16.9986892,0.533871989 16.56308,0.0848593791 16.017,0.075 Z M13.0890144,16.5 C13.0906762,16.6819306 12.9454087,16.8312147 12.7635,16.8345 L1.05,16.8345 C0.868328014,16.8312136 0.723492527,16.6816844 0.725967928,16.5 L0.725967928,4.4325 C0.723492527,4.25081559 0.868328014,4.10128637 1.05,4.098 L12.7635,4.098 C12.9454087,4.10128528 13.0906762,4.25056936 13.0890144,4.4325 L13.0890144,16.5 Z M16.3410321,13.1475 C16.3435075,13.3291844 16.198672,13.4787136 16.017,13.482 L13.7385,13.482 L13.7385,4.4325 C13.7460159,3.88604311 13.3099338,3.43654301 12.7635,3.4275 L3.9795,3.4275 L3.9795,1.08 C3.9795,0.899489026 4.12450581,0.752461513 4.305,0.75 L16.017,0.75 C16.198672,0.753286365 16.3435075,0.902815595 16.3410321,1.0845 L16.3410321,13.1475 Z" id="Shape"></path>
        </g>
    </g>
</svg>