<?xml version="1.0" encoding="UTF-8"?>
<svg width="22px" height="21px" viewBox="0 0 22 21" version="1.1" xmlns="http://www.w3.org/2000/svg" xmlns:xlink="http://www.w3.org/1999/xlink">
    <!-- Generator: Sketch 56.3 (81716) - https://sketch.com -->
    <title>disabled sound</title>
    <desc>Created with Sketch.</desc>
    <g id="Symbols-UX" stroke="none" stroke-width="1" fill="none" fill-rule="evenodd">
        <g id="icon/mute" transform="translate(1.000000, 1.000000)" fill="#00A3B4" fill-rule="nonzero" stroke="#00A3B4">
            <g id="disabled-sound">
                <path d="M1.82882401,13.8206582 L3.99538098,13.8206582 L9.56797492,18.7765619 C9.72156104,18.9167115 9.91772586,18.995842 10.121857,19 C10.2501146,19.0003355 10.3768995,18.9715165 10.4933632,18.9155454 C10.8040536,18.7663584 11.0022035,18.4415649 10.9999815,18.0851632 L10.9999815,0.914549162 C10.9998534,0.557507035 10.8003726,0.233155922 10.4890678,0.0838461788 C10.1777631,-0.065463564 9.8115254,-0.0124455196 9.55108827,0.219631893 L3.99538098,5.17553556 L1.82882401,5.17553556 C0.819178274,5.17650547 0.00093097868,6.02897159 0,7.08084037 L0,11.9171127 C0.00186117358,12.9682944 0.819836513,13.8196903 1.82882401,13.8206582 Z M0.844332414,7.08084037 C0.844332414,6.5143825 1.28510432,6.05517767 1.82882401,6.05517767 L4.14904948,6.05517767 C4.25212513,6.05614508 4.3521402,6.01870879 4.43105651,5.94962062 L10.0982157,0.888159899 C10.1091583,0.879358333 10.1244236,0.879358333 10.1353663,0.888159899 C10.148985,0.89163827 10.1577863,0.905392365 10.1556303,0.919827015 L10.1556303,18.0816446 C10.1560932,18.0912774 10.1527403,18.1006858 10.1463558,18.1076699 C10.1399712,18.1146541 10.1311146,18.1185896 10.121857,18.1185896 C10.1129486,18.1185896 10.1044513,18.1146634 10.0982157,18.1080339 L4.42430185,13.0483325 C4.3466134,12.9782314 4.24673944,12.9406227 4.14398349,12.9427754 L1.82882401,12.9427754 C1.5677206,12.9427754 1.31731131,12.8347148 1.13268333,12.6423658 C0.948055338,12.4500167 0.844332414,12.1891354 0.844332414,11.9171127 L0.844332414,7.08084037 Z" id="Shape" stroke-width="0.5"></path>
                <path d="M19.9117054,6.09544288 C19.8534963,6.03447617 19.7729886,6 19.6888302,6 C19.6046717,6 19.5241641,6.03447617 19.4659549,6.09544288 L16.5017144,9.06873571 L13.558047,6.09544288 C13.4354298,5.97245127 13.2366281,5.97245127 13.114011,6.09544289 C12.9913938,6.2184345 12.9913938,6.4178433 13.114011,6.54083492 L16.0576784,9.51412776 L13.0951523,12.4685043 C13.0343712,12.5268912 13,12.6076447 13,12.6920602 C13,12.7764756 13.0343712,12.8572292 13.0951523,12.915616 C13.2303576,13.028128 13.4262706,13.028128 13.5614759,12.915616 L16.5017144,9.96123946 L19.4385241,12.9138964 C19.5737294,13.0264083 19.7696424,13.0264083 19.9048477,12.9138964 C19.9656288,12.8555095 20,12.774756 20,12.6903405 C20,12.6059251 19.9656288,12.5251715 19.9048477,12.4667847 L16.9457505,9.51412776 L19.8894179,6.56319051 C20.0109863,6.43418933 20.0204543,6.23548549 19.9117054,6.09544288 Z" id="Path" stroke-width="0.6"></path>
            </g>
        </g>
    </g>
</svg>