<svg xmlns="http://www.w3.org/2000/svg" viewBox="0 0 114.81 109.98"><defs><style>.cls-1,.cls-2{stroke:#000;stroke-miterlimit:10;}.cls-1{stroke-width:2px;}.cls-2{stroke-width:3px;}</style></defs><title>disabled sound</title><g id="Layer_2" data-name="Layer 2"><g id="Sample"><path class="cls-1" d="M11.83,79.56H24.66l33,28.17A5.13,5.13,0,0,0,60.94,109a5.22,5.22,0,0,0,2.2-.48,5.16,5.16,0,0,0,3-4.72V6.2a5.2,5.2,0,0,0-8.58-3.95L24.66,30.42H11.83A10.84,10.84,0,0,0,1,41.25V68.74A10.84,10.84,0,0,0,11.83,79.56ZM6,41.25a5.83,5.83,0,0,1,5.83-5.83H25.57a2.56,2.56,0,0,0,1.67-.6L60.8,6.05a.18.18,0,0,1,.22,0,.16.16,0,0,1,.12.18v97.55a.2.2,0,0,1-.2.21.2.2,0,0,1-.14-.06L27.2,75.17a2.46,2.46,0,0,0-1.66-.6H11.83A5.83,5.83,0,0,1,6,68.74Z"/><path class="cls-2" d="M112.76,33.94a1.8,1.8,0,0,0-2.6,0L92.87,51.23,75.7,33.94a1.83,1.83,0,0,0-2.59,2.59L90.28,53.82,73,71a1.8,1.8,0,0,0,0,2.6,2.13,2.13,0,0,0,2.72,0L92.87,56.42,110,73.59a2.13,2.13,0,0,0,2.72,0,1.8,1.8,0,0,0,0-2.6L95.46,53.82l17.17-17.16A2.09,2.09,0,0,0,112.76,33.94Z"/></g></g></svg>