<svg xmlns="http://www.w3.org/2000/svg" viewBox="0 0 119.04 119.04"><defs><style>.cls-1{stroke:#000;stroke-miterlimit:10;stroke-width:3px;}</style></defs><title>emoji</title><g id="Layer_2" data-name="Layer 2"><g id="Sample"><path class="cls-1" d="M59.52,117.54a58,58,0,0,1-41-99.05,58,58,0,0,1,82.06,82.06A57.64,57.64,0,0,1,59.52,117.54Zm0-109.95a51.94,51.94,0,1,0,51.94,51.93A52,52,0,0,0,59.52,7.59Z"/><path class="cls-1" d="M59.52,92A36.48,36.48,0,0,1,28.05,73.83a3,3,0,1,1,5.26-3,30.27,30.27,0,0,0,52.42,0,3,3,0,0,1,5.27,3A36.51,36.51,0,0,1,59.52,92Z"/><circle class="cls-1" cx="39.23" cy="47.69" r="5.85"/><circle class="cls-1" cx="79.81" cy="47.69" r="5.85"/></g></g></svg>