<?xml version="1.0" encoding="UTF-8"?>
<svg width="19px" height="19px" viewBox="0 0 19 19" version="1.1" xmlns="http://www.w3.org/2000/svg" xmlns:xlink="http://www.w3.org/1999/xlink">
    <!-- Generator: Sketch 56.3 (81716) - https://sketch.com -->
    <title>emoji</title>
    <desc>Created with Sketch.</desc>
    <g id="Symbols-UX" stroke="none" stroke-width="1" fill="none" fill-rule="evenodd">
        <g id="Icon/emoji" transform="translate(1.000000, 1.000000)" fill="#4D4D4F" fill-rule="nonzero" stroke="#4D4D4F" stroke-width="0.5">
            <g id="emoji">
                <path d="M8.778,17.4810494 C5.25701778,17.4825574 2.0822418,15.3617043 0.735601006,12.1084172 C-0.611039784,8.8551301 0.13599389,5.11091307 2.628,2.6235 C6.02703651,-0.775536406 11.5379635,-0.775536365 14.9369999,2.62350009 C18.3360364,6.02253655 18.3360364,11.5334635 14.937,14.9325 C13.3071256,16.5710207 11.0890993,17.4888061 8.778,17.4810494 Z M8.778,0.9885 C5.62669816,0.9885 2.785722,2.88687861 1.57991117,5.79835994 C0.374100339,8.70984127 1.0409402,12.0610069 3.26946162,14.2890993 C5.49798304,16.5171916 8.84927703,17.1833862 11.7605261,15.9770148 C14.6717752,14.7706434 16.5696067,11.9293018 16.5690001,8.778 C16.5632141,4.47779132 13.0782097,0.993457891 8.778,0.9885 Z" id="Shape"></path>
                <path d="M8.778,13.65 C6.83177568,13.6456177 5.03434423,12.6078252 4.0575,10.9245 C3.93323593,10.7066237 4.00912367,10.4292641 4.227,10.305 C4.44487633,10.1807359 4.72223593,10.2566237 4.8465,10.4745 C5.65776202,11.8786639 7.15632729,12.7435582 8.778,12.7435582 C10.3996727,12.7435582 11.898238,11.8786639 12.7095,10.4745 C12.8337641,10.2562095 13.1114594,10.179986 13.32975,10.30425 C13.5480405,10.4285141 13.6242641,10.7062095 13.5,10.9245 C12.5222145,12.6076139 10.7245133,13.6452324 8.778,13.65 L8.778,13.65 Z" id="Path"></path>
                <circle id="Oval" cx="5.7345" cy="7.0035" r="1"></circle>
                <circle id="Oval" cx="11.8215" cy="7.0035" r="1"></circle>
            </g>
        </g>
    </g>
</svg>