<?xml version="1.0" encoding="utf-8"?>
<!-- Generator: Adobe Illustrator 23.0.4, SVG Export Plug-In . SVG Version: 6.00 Build 0)  -->
<svg version="1.1" id="Layer_1" xmlns="http://www.w3.org/2000/svg" xmlns:xlink="http://www.w3.org/1999/xlink" x="0px" y="0px"
	 viewBox="0 0 114.6 114.6" style="enable-background:new 0 0 114.6 114.6;" xml:space="preserve">
<style type="text/css">
	.st0{stroke:#000000;stroke-width:4.5;stroke-miterlimit:10;}
	.st1{stroke:#000000;stroke-width:2;stroke-miterlimit:10;}
	.st2{font-family:'ArialMT';}
	.st3{font-size:46.5294px;}
</style>
<title>gif</title>
<g>
	<g id="Sample">
		<path class="st0" d="M84.7,112.8H29.3C14.2,112.8,2,100.6,2,85.5V30.1C2,15,14.2,2.8,29.3,2.8h55.4c15.1,0,27.4,12.3,27.4,27.4
			v55.4C112,100.6,99.8,112.8,84.7,112.8z M29.3,7C16.6,7,6.2,17.4,6.2,30.1v55.4c0,12.8,10.4,23.1,23.1,23.1h55.4
			c12.7,0,23.1-10.4,23.1-23.1V30.1C107.8,17.4,97.5,7,84.7,7H29.3z"/>
		<text transform="matrix(1.09 0 0 1 13.7551 76.2108)" class="st1 st2 st3">GIF</text>
	</g>
</g>
</svg>
