<svg xmlns="http://www.w3.org/2000/svg" viewBox="0 0 114.73 114.73"><defs><style>.cls-1{stroke:#000;stroke-miterlimit:10;stroke-width:2px;}</style></defs><title>image</title><g id="Layer_2" data-name="Layer 2"><g id="Sample"><path class="cls-1" d="M36.07,22.29c7.61,0,13.78,6.45,13.78,14.41S43.68,51.1,36.07,51.1,22.29,44.65,22.29,36.7,28.46,22.29,36.07,22.29Zm0,21.61a7.21,7.21,0,1,0-6.89-7.2A7,7,0,0,0,36.07,43.9ZM106.68,1a7,7,0,0,1,7,7.05v98.63a7,7,0,0,1-7,7H8.05a7,7,0,0,1-7-7V8.05A7,7,0,0,1,8.05,1ZM8.05,103.16a3.51,3.51,0,0,0,1,2.5A3.55,3.55,0,0,1,8.05,103.16Zm98.63,0V92.59L81,66.91a3.51,3.51,0,0,0-5,0L55.31,87.62c-3.75,3.74-6.27,3.69-10,0S38.73,81,38.73,81a3.51,3.51,0,0,0-5,0L9.08,105.66a3.54,3.54,0,0,0,2.49,1h91.59A3.51,3.51,0,0,0,106.68,103.16Zm0-20.54V11.57a3.51,3.51,0,0,0-3.52-3.52H11.57a3.51,3.51,0,0,0-3.52,3.52V96.74L31.26,73.53a7,7,0,0,1,10,0l9.11,9.1,23.2-23.19a7,7,0,0,1,10,0Z"/></g></g></svg>