<?xml version="1.0" encoding="UTF-8"?>
<svg width="19px" height="19px" viewBox="0 0 19 19" version="1.1" xmlns="http://www.w3.org/2000/svg" xmlns:xlink="http://www.w3.org/1999/xlink">
    <!-- Generator: Sketch 56.3 (81716) - https://sketch.com -->
    <title>Shape</title>
    <desc>Created with Sketch.</desc>
    <g id="Symbols-UX" stroke="none" stroke-width="1" fill="none" fill-rule="evenodd">
        <g id="icon/image" transform="translate(1.000000, 1.000000)" fill="#4D4D4F" fill-rule="nonzero" stroke="#4D4D4F" stroke-width="0.3">
            <path d="M5.28582321,3.21201633 C6.43444427,3.21201633 7.36571784,4.18512602 7.36571784,5.38604899 C7.36571784,6.58697196 6.43444427,7.55857295 5.28582321,7.55857295 C4.13720216,7.55857295 3.20592859,6.58546326 3.20592859,5.38604899 C3.20592859,4.18663472 4.13720216,3.21201633 5.28582321,3.21201633 Z M5.28582321,6.47231097 C5.72998015,6.49203467 6.14147588,6.2397127 6.32515477,5.83501106 C6.50883366,5.43030941 6.42775425,4.95462162 6.12036919,4.63354699 C5.81298413,4.31247236 5.34111465,4.21058535 4.92854919,4.37620682 C4.51598373,4.54182829 4.24569737,4.94164848 4.2458759,5.38604899 C4.23776662,5.66847541 4.34321456,5.94237288 4.53864503,6.14650697 C4.73407551,6.35064106 5.00318994,6.46798731 5.28582321,6.47231097 L5.28582321,6.47231097 Z M15.9433965,0 C16.2249235,0 16.4948113,0.112293828 16.6931712,0.31198327 C16.8915312,0.511672711 17.0019576,0.782234834 16.9999737,1.06363152 L16.9999737,15.943912 C16.9999737,16.5271733 16.5269131,17 15.9433965,17 L1.05660351,17 C0.473086926,17 2.62772709e-05,16.5271733 2.62772709e-05,15.943912 L2.62772709e-05,1.06363152 C-0.00195763926,0.782234834 0.108468787,0.511672711 0.306828768,0.31198327 C0.505188749,0.112293828 0.775076487,0 1.05660351,0 L15.9433965,0 Z M1.05660351,15.4128506 C1.05475268,15.5536323 1.10906564,15.6893553 1.20753926,15.7900248 C1.10962833,15.6889899 1.05541227,15.553509 1.05660351,15.4128506 Z M15.9433965,15.4128506 L15.9433965,13.8181576 L12.0673664,9.94382322 C11.9677994,9.84283575 11.8318755,9.78597687 11.6900271,9.78597687 C11.5481786,9.78597687 11.4122547,9.84283575 11.3126877,9.94382322 L8.18982703,13.0683351 C7.62381797,13.6325879 7.24345989,13.6250444 6.68046954,13.0683351 C6.11747919,12.5116258 5.68731231,12.0695776 5.68731231,12.0695776 C5.5877453,11.9685901 5.4518214,11.9117312 5.30997293,11.9117312 C5.16812447,11.9117312 5.03220057,11.9685901 4.93263356,12.0695776 L1.21206734,15.7900248 C1.3126831,15.8876638 1.4476678,15.9418508 1.58789735,15.940907 L15.4121026,15.940907 C15.5526104,15.9412953 15.6875225,15.8858872 15.7871596,15.7868596 C15.8867966,15.687832 15.9429967,15.5532968 15.9433965,15.4128506 Z M15.9433986,12.3139865 L15.9433986,1.59469294 C15.9437989,1.45372378 15.8879526,1.31841242 15.7882284,1.21873177 C15.6885041,1.11905111 15.5531335,1.06322933 15.4121026,1.06362936 L1.58789735,1.06362936 C1.4468665,1.06322933 1.31149592,1.11905111 1.21177164,1.21873177 C1.11204736,1.31841242 1.05620114,1.45372378 1.05660136,1.59469294 L1.05660136,14.444267 L4.55982226,10.9425808 C4.75854769,10.7398462 5.0305484,10.6256004 5.31450101,10.6256004 C5.59845362,10.6256004 5.87045432,10.7398462 6.06917975,10.9425808 L7.44420443,12.3154952 L10.9459138,8.81682641 C11.1446393,8.61409185 11.41664,8.49984604 11.7005926,8.49984604 C11.9845452,8.49984604 12.2565459,8.61409185 12.4552713,8.81682641 L15.9433986,12.3139865 Z" id="Shape"></path>
        </g>
    </g>
</svg>