<svg xmlns="http://www.w3.org/2000/svg" viewBox="0 0 111.61 109.98"><defs><style>.cls-1{stroke:#000;stroke-miterlimit:10;stroke-width:2px;}</style></defs><title>sound</title><g id="Layer_2" data-name="Layer 2"><g id="Sample"><path class="cls-1" d="M11.83,79.56H24.66l33,28.17A5.13,5.13,0,0,0,60.94,109a5.22,5.22,0,0,0,2.2-.48,5.16,5.16,0,0,0,3-4.72V6.2a5.2,5.2,0,0,0-8.58-3.95L24.66,30.42H11.83A10.84,10.84,0,0,0,1,41.25V68.74A10.84,10.84,0,0,0,11.83,79.56ZM6,41.25a5.83,5.83,0,0,1,5.83-5.83H25.57a2.56,2.56,0,0,0,1.67-.6L60.8,6.05a.18.18,0,0,1,.22,0,.16.16,0,0,1,.12.18v97.55a.2.2,0,0,1-.2.21.2.2,0,0,1-.14-.06L27.2,75.17a2.46,2.46,0,0,0-1.66-.6H11.83A5.83,5.83,0,0,1,6,68.74ZM110.61,55A51.32,51.32,0,0,1,86.88,98.3a2.5,2.5,0,1,1-3.25-3.8,2.41,2.41,0,0,1,.5-.33,46.51,46.51,0,0,0,0-78.29,2.51,2.51,0,1,1,2.75-4.2A51.34,51.34,0,0,1,110.61,55Zm-25,0A26.37,26.37,0,0,0,75.2,34a2.5,2.5,0,0,1,2.58-4.28,2.88,2.88,0,0,1,.43.33,31.44,31.44,0,0,1,0,50A2.5,2.5,0,0,1,75,76.17a1.56,1.56,0,0,1,.2-.16A26.31,26.31,0,0,0,85.61,55Z"/></g></g></svg>