<?xml version="1.0" encoding="UTF-8"?>
<svg width="20px" height="20px" viewBox="0 0 20 20" version="1.1" xmlns="http://www.w3.org/2000/svg" xmlns:xlink="http://www.w3.org/1999/xlink">
    <!-- Generator: Sketch 56.3 (81716) - https://sketch.com -->
    <title>sound</title>
    <desc>Created with Sketch.</desc>
    <g id="Symbols-UX" stroke="none" stroke-width="1" fill="none" fill-rule="evenodd">
        <g id="icon/sound" transform="translate(1.000000, 1.000000)" fill="#00A3B4" fill-rule="nonzero" stroke="#00A3B4" stroke-width="0.4">
            <g id="sound">
                <path d="M1.8411,13.3552 L4.0222,13.3552 L9.6322,18.1441 C9.78681707,18.2795269 9.98429865,18.3559908 10.1898,18.3600029 C10.3189186,18.3603329 10.4465545,18.3324851 10.5638,18.2784 C10.8765758,18.1342403 11.0760559,17.8203917 11.0738189,17.476 L11.0738189,0.884 C11.07369,0.538989451 10.8728702,0.225568297 10.5594758,0.0812899822 C10.2460814,-0.0629883323 9.87738532,-0.011756886 9.6152,0.2125 L4.0222,5.0014 L1.8411,5.0014 C0.824677013,5.00233723 0.000937227879,5.82607701 0,6.8425 L0,11.5158 C0.00187366672,12.531559 0.82533967,13.3542647 1.8411,13.3552 Z M0.85,6.8425 C0.85,6.29513058 1.29373058,5.8514 1.8411,5.8514 L4.1769,5.8514 C4.28066754,5.85233481 4.38135396,5.81616004 4.4608,5.7494 L10.166,0.8585 C10.1770161,0.849995029 10.1923839,0.849995029 10.2034,0.8585 C10.2171101,0.861861157 10.2259705,0.875151768 10.2238,0.8891 L10.2238,17.4726 C10.224266,17.4819081 10.2208907,17.4909995 10.2144632,17.4977483 C10.2080358,17.5044971 10.1991198,17.5083 10.1898,17.5083 C10.1808318,17.5083 10.1722774,17.5045061 10.166,17.4981 L4.454,12.6089 C4.37579006,12.5411612 4.2752457,12.5048199 4.1718,12.5069 L1.8411,12.5069 C1.57824394,12.5069 1.32615377,12.4024808 1.14028647,12.2166135 C0.954419164,12.0307462 0.85,11.7786561 0.85,11.5158 L0.85,6.8425 Z M18.6337022,9.18 C18.6352807,12.16183 17.113866,14.937947 14.5996,16.541 C14.4842032,16.6396946 14.3249192,16.6693288 14.1817488,16.6187395 C14.0385784,16.5681503 13.9332724,16.4450234 13.9054988,16.2957395 C13.8777251,16.1464557 13.9317032,15.9936946 14.0471,15.895 C14.0729898,15.8728375 14.1015437,15.8539919 14.1321,15.8389 C16.3984846,14.3847137 17.7689595,11.8770472 17.7689595,9.18425 C17.7689595,6.49145277 16.3984846,3.9837863 14.1321,2.5296 C14.0045562,2.44608917 13.9312533,2.30087816 13.9398039,2.14866656 C13.9483545,1.99645495 14.0374595,1.86036732 14.1735539,1.79166655 C14.3096483,1.72296578 14.4720562,1.73208916 14.5996,1.8156 C17.1144045,3.41975165 18.6358053,6.19712555 18.6337022,9.18 L18.6337022,9.18 Z M14.3837,9.18 C14.3841361,7.77882506 13.7294029,6.45803759 12.614,5.61 C12.4213367,5.48535517 12.3624075,5.23027899 12.4808726,5.03375546 C12.5993377,4.83723193 12.8524144,4.77023403 13.0526,4.8824 C13.0786761,4.89876034 13.1031512,4.91754351 13.1257,4.9385 C14.4514369,5.94950612 15.2294528,7.52125323 15.2294528,9.1885 C15.2294528,10.8557468 14.4514369,12.4274939 13.1257,13.4385 C12.9435565,13.5891909 12.6737409,13.5636935 12.52305,13.38155 C12.3723591,13.1994065 12.3978565,12.9295909 12.58,12.7789 C12.5905686,12.7689167 12.6019403,12.7598194 12.614,12.7517 C13.7311359,11.9043395 14.3862555,10.5821434 14.3837,9.18 L14.3837,9.18 Z" id="Shape"></path>
            </g>
        </g>
    </g>
</svg>