<?xml version="1.0" encoding="UTF-8"?>
<svg width="17px" height="20px" viewBox="0 0 17 20" version="1.1" xmlns="http://www.w3.org/2000/svg" xmlns:xlink="http://www.w3.org/1999/xlink">
    <!-- Generator: Sketch 56.3 (81716) - https://sketch.com -->
    <title>Shape</title>
    <desc>Created with Sketch.</desc>
    <g id="Symbols-UX" stroke="none" stroke-width="1" fill="none" fill-rule="evenodd">
        <g id="icon/trash" transform="translate(1.000000, 1.000000)" fill="#D86060" fill-rule="nonzero" stroke="#D86060" stroke-width="0.3">
            <path d="M14.3147692,1.91503906 L10.3526197,1.91503906 C10.4302877,1.75338125 10.4718368,1.57684393 10.4743981,1.39761719 L10.4743981,1.26464844 C10.4736041,0.567658059 9.90789554,0.0023865054 9.2087719,0 L6.37452299,0 C5.67596585,0.00317959668 5.11113666,0.568219641 5.1103465,1.26464844 L5.1103465,1.39761719 C5.1115245,1.57701083 5.15314357,1.75384517 5.23212497,1.91503906 L1.26852573,1.91503906 C0.569023195,1.91899427 0.00316835752,2.48376427 0,3.18113281 L0,3.43984375 C0.00395202818,4.13688661 0.569350774,4.70120139 1.26852573,4.7059375 L1.85567192,4.7059375 C1.78328791,4.86896249 1.74529146,5.04508134 1.74404166,5.22335937 L1.74404166,17.2353516 C1.74211364,17.5688422 1.87315227,17.889437 2.10832938,18.1266058 C2.3435065,18.3637745 2.66355676,18.4980889 2.99806994,18.5 L12.5663783,18.5 C12.9008897,18.5 13.2217005,18.367522 13.4582358,18.1317097 C13.6947711,17.8958973 13.8276553,17.5760671 13.8276553,17.2425781 L13.8276553,5.22335938 C13.8299053,5.04487043 13.792268,4.86812088 13.7174748,4.7059375 L14.3104199,4.7059375 C14.6471052,4.70593772 14.9699796,4.57249997 15.207916,4.3350197 C15.4458525,4.09753942 15.5793304,3.77549972 15.5789465,3.43984375 L15.5789465,3.18113281 C15.5797492,2.4838126 15.0142236,1.91742942 14.3147692,1.91503906 Z M13.091219,5.22335937 L13.091219,17.2353516 C13.0944098,17.5213639 12.864856,17.7560344 12.5779762,17.76 L10.1003643,17.76 L10.1003643,7.58355469 C10.1003643,7.37920933 9.93420174,7.21355469 9.72922988,7.21355469 C9.52425802,7.21355469 9.3580955,7.37920933 9.3580955,7.58355469 L9.3580955,17.7556641 L6.22664914,17.7556641 L6.22664914,7.58355469 C6.22664913,7.37920934 6.06048661,7.2135547 5.85551475,7.2135547 C5.6505429,7.2135547 5.48438038,7.37920934 5.48438037,7.58355469 L5.48438037,17.7556641 L3.0198161,17.7556641 C2.88166271,17.7556662 2.74920962,17.7007557 2.65179291,17.6030941 C2.55437621,17.5054326 2.50003605,17.3730805 2.50079975,17.2353516 L2.50079975,5.22335937 C2.50079975,5.08613056 2.55548893,4.95452228 2.65282185,4.85748686 C2.75015478,4.76045143 2.88216656,4.70593548 3.0198161,4.70593548 L12.5707275,4.70593548 C12.7086281,4.70555348 12.8410126,4.75989784 12.9386593,4.85697491 C13.036306,4.95405199 13.091219,5.08587978 13.091219,5.22335937 Z M14.8424759,3.43984375 C14.8424759,3.73039731 14.6062135,3.9659375 14.3147692,3.9659375 L1.26852573,3.9659375 C0.977647683,3.96514082 0.742268768,3.72983381 0.742268768,3.43984375 L0.742268768,3.43984375 L0.742268768,3.18113281 C0.742268768,2.89137748 0.977882033,2.65648438 1.26852573,2.65648438 L7.0051615,2.65648438 C7.21013336,2.65648438 7.37629588,2.49082973 7.37629588,2.28648438 C7.37629588,2.08213902 7.21013336,1.91648438 7.0051615,1.91648438 L6.37452299,1.91648438 C6.2366219,1.91648491 6.10438994,1.86177262 6.00701523,1.76442438 C5.90964052,1.66707614 5.85512955,1.53509625 5.85551475,1.39761719 L5.85551475,1.26464844 C5.85548745,0.977691953 6.08671403,0.743952567 6.37452299,0.739997979 L9.2087719,0.739997979 C9.34667246,0.739615979 9.47905698,0.793960335 9.57670369,0.891037414 C9.67435039,0.988114492 9.72923042,1.11994228 9.72922988,1.25742187 L9.72922988,1.40195312 C9.72605226,1.68625529 9.49396341,1.91505671 9.2087719,1.91503906 L9.2087719,1.91503906 C9.00380004,1.91503906 8.83763752,2.08069371 8.83763752,2.28503906 C8.83763752,2.48938442 9.00380004,2.65503906 9.2087719,2.65503906 L14.3147692,2.65503906 C14.4545922,2.65465505 14.5888205,2.70976078 14.6878266,2.8081931 C14.7868327,2.90662542 14.8424759,3.0402913 14.8424759,3.1796875 L14.8424759,3.43984375 Z" id="Shape"></path>
        </g>
    </g>
</svg>