<svg xmlns="http://www.w3.org/2000/svg" viewBox="0 0 108.99 129.47"><defs><style>.cls-1{stroke:#000;stroke-miterlimit:10;stroke-width:1.5px;}</style></defs><title>trash</title><g id="Layer_2" data-name="Layer 2"><g id="Sample"><path class="cls-1" d="M99.49,14H72.16A8.57,8.57,0,0,0,73,10.42V9.5A8.76,8.76,0,0,0,64.27.75H44.72A8.76,8.76,0,0,0,36,9.5v.92A8.28,8.28,0,0,0,36.84,14H9.5A8.8,8.8,0,0,0,.75,22.76v1.79A8.81,8.81,0,0,0,9.5,33.31h4.05a9,9,0,0,0-.77,3.58V120a8.7,8.7,0,0,0,8.65,8.75h66a8.7,8.7,0,0,0,8.7-8.7V36.89a8.32,8.32,0,0,0-.76-3.58h4.09a8.75,8.75,0,0,0,8.75-8.76V22.76A8.75,8.75,0,0,0,99.49,14ZM91.05,36.89V120a3.59,3.59,0,0,1-3.54,3.63H70.42V53.22a2.56,2.56,0,0,0-5.12,0V123.6H43.7V53.22a2.56,2.56,0,0,0-5.12,0V123.6h-17A3.58,3.58,0,0,1,18,120V36.89a3.58,3.58,0,0,1,3.58-3.58H87.46A3.58,3.58,0,0,1,91.05,36.89Zm12.08-12.34a3.64,3.64,0,0,1-3.64,3.64H9.5a3.64,3.64,0,0,1-3.63-3.64h0V22.76A3.63,3.63,0,0,1,9.5,19.13H49.07a2.56,2.56,0,1,0,0-5.12H44.72a3.58,3.58,0,0,1-3.58-3.59V9.5a3.63,3.63,0,0,1,3.58-3.63H64.27a3.58,3.58,0,0,1,3.59,3.58v1A3.59,3.59,0,0,1,64.27,14h0a2.56,2.56,0,1,0,0,5.12H99.49a3.63,3.63,0,0,1,3.64,3.63Z"/></g></g></svg>