<svg xmlns="http://www.w3.org/2000/svg" viewBox="0 0 114.13 119.22"><defs><style>.cls-1{stroke:#000;stroke-miterlimit:10;stroke-width:5px;}</style></defs><title>menu</title><g id="Layer_2" data-name="Layer 2"><g id="Sample"><path class="cls-1" d="M5.53,2.5c-1.67,0-3,1.83-3,4.08s1.36,4.08,3,4.08H108.6c1.67,0,3-1.83,3-4.08s-1.36-4.08-3-4.08Zm0,53c-1.67,0-3,1.83-3,4.08s1.36,4.08,3,4.08H108.6c1.67,0,3-1.83,3-4.08s-1.36-4.08-3-4.08Zm0,53c-1.67,0-3,1.83-3,4.08s1.36,4.08,3,4.08H108.6c1.67,0,3-1.82,3-4.08s-1.36-4.08-3-4.08Z"/></g></g></svg>