<svg xmlns="http://www.w3.org/2000/svg" viewBox="0 0 95.85 123.63"><defs><style>.cls-1{stroke:#000;stroke-miterlimit:10;stroke-width:5px;}</style></defs><title>notification</title><g id="Layer_2" data-name="Layer 2"><g id="Sample"><path class="cls-1" d="M47.92,110.15c-12.53,0-31.77-3.08-39.55-5.06a8,8,0,0,1-5.62-9.66L3,95,13.34,74.56V53c0-19.33,15.56-35.15,34.58-35.15S82.51,33.7,82.51,53V74.56L93.1,95.43a8,8,0,0,1-5.62,9.66C79.7,107.07,60.46,110.15,47.92,110.15ZM6.85,96.53a3.54,3.54,0,0,0,2.6,4.17c7.56,2.2,26.15,5,38.47,5s30.91-2.85,38.48-4.83A3.64,3.64,0,0,0,89,96.75L78.19,75.66V53c0-16.92-13.62-30.76-30.27-30.76S17.66,36.11,17.66,53V75.44Z"/><path class="cls-1" d="M47.92,121.13A13.12,13.12,0,0,1,35,108h4.33a8.65,8.65,0,1,0,17.29,0h4.32A13.11,13.11,0,0,1,47.92,121.13Z"/><path class="cls-1" d="M60.89,22.27H56.57V15.68a8.65,8.65,0,1,0-17.29,0v6.59H35V15.68a13,13,0,1,1,25.94,0Z"/></g></g></svg>