<?xml version="1.0" encoding="UTF-8"?>
<svg width="17px" height="17px" viewBox="0 0 17 17" version="1.1" xmlns="http://www.w3.org/2000/svg" xmlns:xlink="http://www.w3.org/1999/xlink">
    <!-- Generator: Sketch 56.3 (81716) - https://sketch.com -->
    <title>Shape</title>
    <desc>Created with Sketch.</desc>
    <g id="Symbols_UI" stroke="none" stroke-width="1" fill="none" fill-rule="evenodd">
        <g id="icon/search" transform="translate(-1.000000, -1.000000)" fill="#00A3B4" fill-rule="nonzero" stroke="#00A3B4" stroke-width="0.5">
            <path d="M17.2412,16.8837 L13.0708,12.5937 C15.2808,9.8793 14.9337,5.8337 12.2908,3.56 C11.0349874,2.46984322 9.38907341,1.9386625 7.73290546,2.0890448 C6.07673751,2.23942711 4.55341738,3.05837861 3.5145,4.3569 C1.3045,7.0713 1.6516,11.1169 4.2945,13.3906 C6.62394635,15.4202135 10.1036144,15.3855788 12.3922,13.31 L16.5522,17.5857 C16.6426424,17.6797693 16.7675053,17.7329328 16.898,17.7329328 C17.0284947,17.7329328 17.1533576,17.6797693 17.2438,17.5857 C17.4320101,17.385526 17.4320101,17.073474 17.2438,16.8733 L17.2412,16.8837 Z M4.535,12.3454 C2.48501933,10.2057894 2.48903515,6.82962778 4.5441,4.6949 C5.51663116,3.68405687 6.85937167,3.11359299 8.26208965,3.11530664 C9.66480763,3.11702802 11.0061471,3.69077834 11.9762,4.704 C14.0235686,6.83971808 14.0235686,10.2096819 11.9762,12.3454 C11.0038762,13.3589595 9.66013419,13.9319691 8.2556,13.9319691 C6.85106581,13.9319691 5.50732376,13.3589595 4.535,12.3454 Z" id="Shape"></path>
        </g>
    </g>
</svg>