<svg xmlns="http://www.w3.org/2000/svg" viewBox="0 0 121.25 123.51"><defs><style>.cls-1{stroke:#000;stroke-miterlimit:10;stroke-width:3px;}</style></defs><title>search</title><g id="Layer_2" data-name="Layer 2"><g id="Sample"><path class="cls-1" d="M118.24,115.49l-32.08-33c17-20.88,14.33-52-6-69.49a47,47,0,0,0-67.51,6.13c-17,20.88-14.33,52,6,69.49A46.88,46.88,0,0,0,80.94,88l32,32.89a3.69,3.69,0,0,0,5.32,0,4,4,0,0,0,0-5.48ZM20.5,80.58a42.48,42.48,0,0,1,.07-58.85,39.62,39.62,0,0,1,57.17.07,42.47,42.47,0,0,1,0,58.78A39.66,39.66,0,0,1,20.5,80.58Z"/></g></g></svg>