<?xml version="1.0" encoding="utf-8"?>
<!-- Generator: Adobe Illustrator 23.0.4, SVG Export Plug-In . SVG Version: 6.00 Build 0)  -->
<svg version="1.1" id="Layer_1" xmlns="http://www.w3.org/2000/svg" xmlns:xlink="http://www.w3.org/1999/xlink" x="0px" y="0px"
	 viewBox="0 0 111.2 111.2" style="enable-background:new 0 0 111.2 111.2;" xml:space="preserve">
<style type="text/css">
	.st0{fill:#4D4D4F;stroke:#4D4D4F;stroke-width:2.5;stroke-miterlimit:10;}
</style>
<title>exit icon</title>
<g>
	<g id="Sample">
		<path class="st0" d="M55.6,1.2c-30,0-54.4,24.3-54.4,54.3c0,30,24.3,54.4,54.3,54.4c30,0,54.4-24.3,54.4-54.3c0,0,0,0,0,0
			C109.9,25.6,85.6,1.3,55.6,1.2z M55.6,106.2C27.6,106.2,5,83.6,5,55.6S27.6,5,55.6,5c28,0,50.6,22.7,50.6,50.6
			C106.2,83.6,83.6,106.2,55.6,106.2L55.6,106.2z"/>
		<path class="st0" d="M75.5,35.7c-0.7-0.7-1.8-0.7-2.5-0.1c0,0,0,0-0.1,0.1L55.6,53L38.4,35.7c-0.7-0.7-1.9-0.7-2.6,0
			c-0.7,0.7-0.7,1.9,0,2.6L53,55.6L35.7,72.8c-0.7,0.7-0.7,1.8-0.1,2.5c0,0,0,0,0.1,0.1c0.8,0.7,1.9,0.7,2.7,0l17.2-17.2l17.2,17.2
			c0.8,0.7,1.9,0.7,2.7,0c0.7-0.7,0.7-1.8,0.1-2.5c0,0,0,0-0.1-0.1L58.2,55.6l17.2-17.2C76.1,37.7,76.1,36.5,75.5,35.7z"/>
	</g>
</g>
</svg>
