<?xml version="1.0" encoding="utf-8"?>
<!-- Generator: Adobe Illustrator 23.0.4, SVG Export Plug-In . SVG Version: 6.00 Build 0)  -->
<svg version="1.1" id="Layer_1" xmlns="http://www.w3.org/2000/svg" xmlns:xlink="http://www.w3.org/1999/xlink" x="0px" y="0px"
	 viewBox="0 0 113.2 113.2" style="enable-background:new 0 0 113.2 113.2;" xml:space="preserve">
<style type="text/css">
	.st0{fill:#4D4D4F;stroke:#4D4D4F;stroke-width:2.5;stroke-miterlimit:10;}
</style>
<title>minus icon</title>
<g>
	<g id="Sample">
		<path class="st0" d="M56.6,1.2C26,1.3,1.3,26.1,1.3,56.6c0,30.6,24.8,55.3,55.4,55.3c30.6,0,55.3-24.8,55.3-55.4
			C112,26,87.2,1.2,56.6,1.2C56.6,1.2,56.6,1.2,56.6,1.2z M56.6,108.2C28.1,108.2,5,85.1,5,56.6S28.1,5,56.6,5s51.6,23.1,51.6,51.6
			c0,0,0,0,0,0C108.1,85.1,85.1,108.1,56.6,108.2z"/>
		<path class="st0" d="M83.3,54.7H29.9c-1,0-1.9,0.8-1.9,1.9c0,1,0.8,1.9,1.9,1.9c0,0,0,0,0,0h53.3c1,0,1.9-0.8,1.9-1.9
			C85.2,55.6,84.3,54.7,83.3,54.7z"/>
	</g>
</g>
</svg>
