<?xml version="1.0" encoding="utf-8"?>
<!-- Generator: Adobe Illustrator 23.0.4, SVG Export Plug-In . SVG Version: 6.00 Build 0)  -->
<svg version="1.1" id="Layer_1" xmlns="http://www.w3.org/2000/svg" xmlns:xlink="http://www.w3.org/1999/xlink" x="0px" y="0px"
	 viewBox="0 0 112.6 112.6" style="enable-background:new 0 0 112.6 112.6;" xml:space="preserve">
<style type="text/css">
	.st0{fill:#4D4D4F;stroke:#4D4D4F;stroke-width:2;stroke-miterlimit:10;}
</style>
<title>plus icon</title>
<g>
	<g id="Sample">
		<path class="st0" d="M56.3,1C25.7,1,1,25.7,1,56.3s24.7,55.3,55.3,55.3c30.5,0,55.3-24.7,55.3-55.3c0,0,0,0,0,0
			C111.5,25.8,86.8,1,56.3,1z M56.3,107.5C28,107.5,5.1,84.6,5.1,56.3S28,5.1,56.3,5.1s51.2,22.9,51.2,51.2c0,0,0,0,0,0
			C107.4,84.5,84.5,107.4,56.3,107.5z"/>
		<path class="st0" d="M78.6,54.2H58.4V34c0-1.2-0.9-2.1-2.1-2.1c-1.2,0-2.1,0.9-2.1,2.1v20.3H34c-1.2,0-2.1,0.9-2.1,2.1
			c0,1.2,0.9,2.1,2.1,2.1h20.3v20.3c0,1.2,0.9,2.1,2.1,2.1c1.2,0,2.1-0.9,2.1-2.1V58.4h20.3c1.2,0,2.1-0.9,2.1-2.1
			C80.7,55.1,79.8,54.3,78.6,54.2z"/>
	</g>
</g>
</svg>
