<?xml version="1.0" encoding="UTF-8"?>
<svg width="26px" height="26px" viewBox="0 0 26 26" version="1.1" xmlns="http://www.w3.org/2000/svg" xmlns:xlink="http://www.w3.org/1999/xlink">
    <!-- Generator: Sketch 56.3 (81716) - https://sketch.com -->
    <title>Group</title>
    <desc>Created with Sketch.</desc>
    <g id="Symbols_UI" stroke="none" stroke-width="1" fill="none" fill-rule="evenodd">
        <g id="icon/close" fill="#00A3B4">
            <g id="Group">
                <path d="M-2.24137931,11.6551724 L28.2413793,11.6551724 C28.9841071,11.6551724 29.5862069,12.2572722 29.5862069,13 C29.5862069,13.7427278 28.9841071,14.3448276 28.2413793,14.3448276 L-2.24137931,14.3448276 C-2.98410708,14.3448276 -3.5862069,13.7427278 -3.5862069,13 C-3.5862069,12.2572722 -2.98410708,11.6551724 -2.24137931,11.6551724 Z" id="Rectangle" transform="translate(13.000000, 13.000000) rotate(45.000000) translate(-13.000000, -13.000000) "></path>
                <path d="M-2.24137931,11.6551724 L28.2413793,11.6551724 C28.9841071,11.6551724 29.5862069,12.2572722 29.5862069,13 C29.5862069,13.7427278 28.9841071,14.3448276 28.2413793,14.3448276 L-2.24137931,14.3448276 C-2.98410708,14.3448276 -3.5862069,13.7427278 -3.5862069,13 C-3.5862069,12.2572722 -2.98410708,11.6551724 -2.24137931,11.6551724 Z" id="Rectangle-Copy" transform="translate(13.000000, 13.000000) scale(-1, 1) rotate(45.000000) translate(-13.000000, -13.000000) "></path>
            </g>
        </g>
    </g>
</svg>