<svg xmlns="http://www.w3.org/2000/svg" viewBox="0 0 125.78 105"><defs><style>.cls-1{stroke:#000;stroke-miterlimit:10;stroke-width:3.5px;}</style></defs><title>attention illustration</title><g id="Layer_2" data-name="Layer 2"><g id="Sample"><path class="cls-1" d="M122.73,93.65,68.64,5.45a6.93,6.93,0,0,0-5.75-3.7c-2.21,0-4.3,1.35-5.75,3.7L3.06,93.65c-1.48,2.42-1.71,4.78-.66,6.67s3.2,2.93,6,2.93H117.35c2.83,0,5-1,6-2.93S124.2,96.07,122.73,93.65Zm-2.31,5c-.43.76-1.54,1.2-3.07,1.2H8.43c-1.52,0-2.64-.44-3.06-1.2s-.21-1.93.58-3.23L60,7.23c.82-1.35,1.83-2.08,2.85-2.08s2,.73,2.85,2.08l54.09,88.2C120.63,96.73,120.84,97.91,120.42,98.66Z"/><path d="M68,43,66.83,70.64a3.88,3.88,0,0,1-4,3.75,3.92,3.92,0,0,1-3.75-3.75L57.93,43a4.9,4.9,0,0,1,4.87-5.14A5,5,0,0,1,68,42.68Z"/><circle cx="62.94" cy="82.54" r="5.28"/></g></g></svg>