<svg xmlns="http://www.w3.org/2000/svg" viewBox="0 0 125.77 125.77"><defs><style>.cls-1{stroke:#000;stroke-miterlimit:10;stroke-width:3.5px;}</style></defs><title>connection illustration</title><g id="Layer_2" data-name="Layer 2"><g id="Sample"><path class="cls-1" d="M100.93,47.94a23.1,23.1,0,1,0-23.1-23.09A22.8,22.8,0,0,0,80,34.57L54.69,48.2A28.54,28.54,0,1,0,52.8,80.33L79.1,99.84a17.45,17.45,0,0,0-1.27,6.52,17.72,17.72,0,1,0,2.49-9L54.37,78.1A28.22,28.22,0,0,0,56,50.59L81.3,37A23.07,23.07,0,0,0,100.93,47.94ZM95.49,91.42a14.94,14.94,0,1,1-14.94,14.94A15,15,0,0,1,95.49,91.42ZM30.28,88.7A25.82,25.82,0,1,1,56.09,62.89,25.84,25.84,0,0,1,30.28,88.7ZM100.93,4.47A20.38,20.38,0,1,1,80.55,24.85,20.4,20.4,0,0,1,100.93,4.47Z"/></g></g></svg>