<svg xmlns="http://www.w3.org/2000/svg" viewBox="0 0 76.8 123.05"><defs><style>.cls-1{stroke:#000;stroke-miterlimit:10;stroke-width:3px;}</style></defs><title>favorite illustration</title><g id="Layer_2" data-name="Layer 2"><g id="Sample"><path class="cls-1" d="M4.45,114.93c0,1.65,1,2.13,2.28,1.08l27.13-22.6a7.33,7.33,0,0,1,9.09,0L70.07,116c1.26,1,2.28.59,2.28-1.08V7.43a3,3,0,0,0-3-3h-62a3,3,0,0,0-3,3ZM6,120.44c-2.49,2.09-4.52,1.15-4.52-2.14V7.42A5.9,5.9,0,0,1,7.41,1.5h62A5.89,5.89,0,0,1,75.3,7.42V118.3c0,3.26-2,4.22-4.52,2.14l-29-24.14a5.53,5.53,0,0,0-6.81,0ZM37.07,62.53l-7.52,4c-.73.38-1.22,0-1.08-.78l1.44-8.38a3.21,3.21,0,0,0-.83-2.53L23,48.86c-.59-.57-.41-1.15.41-1.27l8.41-1.22A3.2,3.2,0,0,0,34,44.8l3.77-7.62c.36-.73,1-.74,1.33,0l3.76,7.62A3.2,3.2,0,0,0,45,46.37l8.41,1.22c.82.12,1,.69.42,1.27l-6.09,5.93a3.2,3.2,0,0,0-.82,2.53l1.43,8.38c.14.81-.34,1.17-1.07.78l-7.53-4A3.21,3.21,0,0,0,37.07,62.53ZM26.88,71.22l8.93-4.7a6.24,6.24,0,0,1,5.18,0l8.93,4.7c1.43.75,2.37.07,2.1-1.52l-1.71-10a6.22,6.22,0,0,1,1.6-4.92l7.22-7c1.16-1.13.8-2.23-.79-2.46l-10-1.46a6.22,6.22,0,0,1-4.19-3l-4.46-9c-.72-1.45-1.88-1.44-2.59,0l-4.47,9a6.2,6.2,0,0,1-4.18,3l-10,1.46c-1.6.23-2,1.33-.8,2.46l7.23,7a6.22,6.22,0,0,1,1.6,4.92l-1.71,10C24.52,71.29,25.45,72,26.88,71.22Z"/></g></g></svg>