<svg xmlns="http://www.w3.org/2000/svg" viewBox="0 0 92.85 120.63"><defs><style>.cls-1{stroke:#000;stroke-miterlimit:10;stroke-width:2px;}</style></defs><title>notification illustration</title><g id="Layer_2" data-name="Layer 2"><g id="Sample"><path class="cls-1" d="M46.42,108.65c-12.53,0-31.77-3.08-39.55-5.06a8,8,0,0,1-5.62-9.66l.21-.44L11.84,73.06V51.53c0-19.33,15.56-35.15,34.58-35.15S81,32.2,81,51.53V73.06L91.6,93.93A8,8,0,0,1,86,103.59C78.2,105.57,59,108.65,46.42,108.65ZM5.35,95A3.54,3.54,0,0,0,8,99.2c7.56,2.2,26.15,5,38.47,5s30.91-2.85,38.48-4.83a3.64,3.64,0,0,0,2.59-4.17L76.69,74.16V51.53c0-16.92-13.62-30.76-30.27-30.76S16.16,34.61,16.16,51.53V73.94Z"/><path class="cls-1" d="M46.42,119.63a13.12,13.12,0,0,1-13-13.18h4.33a8.65,8.65,0,1,0,17.29,0h4.32A13.11,13.11,0,0,1,46.42,119.63Z"/><path class="cls-1" d="M59.39,20.77H55.07V14.18a8.65,8.65,0,1,0-17.29,0v6.59H33.45V14.18a13,13,0,1,1,25.94,0Z"/></g></g></svg>