<svg xmlns="http://www.w3.org/2000/svg" viewBox="0 0 120.24 120.16"><defs><style>.cls-1{fill:none;}.cls-2,.cls-3{stroke:#000;stroke-miterlimit:10;}.cls-3{stroke-width:2.5px;}</style></defs><title>update illustration</title><g id="Layer_2" data-name="Layer 2"><g id="Sample"><rect class="cls-1" x="2.81" y="2.77" width="114.62" height="114.62"/><path class="cls-2" d="M38.43,41.74H73a12,12,0,0,1,12,12V64.53a2.23,2.23,0,0,0,4.45,0V53.75A16.54,16.54,0,0,0,72.91,37.22H38.52l8.31-8.31a2.21,2.21,0,1,0-3.13-3.13L31.44,38a2.14,2.14,0,0,0,0,3.12L43.7,53.34a2.19,2.19,0,0,0,3.13,0,2.14,2.14,0,0,0,0-3.12Z"/><path class="cls-2" d="M88.87,79,76.61,66.84A2.21,2.21,0,0,0,73.48,70L82,78.44H47.4a12,12,0,0,1-12-12V55.56a2.22,2.22,0,1,0-4.44,0V66.34A16.54,16.54,0,0,0,47.48,82.88H82l-8.48,8.39a2.15,2.15,0,0,0,0,3.13,2.28,2.28,0,0,0,1.57.66,2.26,2.26,0,0,0,1.56-.66L88.79,82.22A2.32,2.32,0,0,0,88.87,79Z"/><path class="cls-3" d="M60.12,1.25A58.83,58.83,0,1,0,119,60.08,58.85,58.85,0,0,0,60.12,1.25Zm0,113.65A54.82,54.82,0,1,1,115,60.08,54.91,54.91,0,0,1,60.12,114.9Z"/></g></g></svg>