<svg xmlns="http://www.w3.org/2000/svg" viewBox="0 0 88.77 88.77"><title>invisible icon</title><g id="Layer_2" data-name="Layer 2"><g id="Sample"><path d="M37.47,19.29a29.08,29.08,0,0,1,6.88-.79,30.3,30.3,0,0,1,8.32,1.16,35.43,35.43,0,0,1,8.91,4,51.51,51.51,0,0,1,10.7,9.06,68.51,68.51,0,0,1,5.86,7.4c1.2,1.73,2.1,3.22,2.71,4.27a62.17,62.17,0,0,1-6.57,9.4,3.69,3.69,0,0,0,5.61,4.81,69.46,69.46,0,0,0,8.44-12.46,3.68,3.68,0,0,0,0-3.4,60.74,60.74,0,0,0-4.14-6.81,76.14,76.14,0,0,0-6.5-8.21A58.24,58.24,0,0,0,65.47,17.36a42.52,42.52,0,0,0-10.78-4.82A37.67,37.67,0,0,0,44.43,11.1a36.88,36.88,0,0,0-8.65,1,3.7,3.7,0,1,0,1.69,7.2Zm-.38,23,9.36,9.36a7.35,7.35,0,0,1-2.08.38,7.42,7.42,0,0,1-7.28-9.74Zm-15-15,9.44,9.45a14.1,14.1,0,0,0-1.32,2.67,14.73,14.73,0,0,0-.93,5.71A14.72,14.72,0,0,0,34,55.49a14.67,14.67,0,0,0,4.91,3,14.75,14.75,0,0,0,11.32-.4A13.58,13.58,0,0,0,52,57.2l8.58,8.59a34.11,34.11,0,0,1-5.88,2.69,33.05,33.05,0,0,1-10.33,1.79,30,30,0,0,1-8.23-1.16,35.08,35.08,0,0,1-8.91-4,51,51,0,0,1-10.7-9.05,69.43,69.43,0,0,1-5.87-7.4c-1.19-1.74-2.09-3.22-2.7-4.27a63.74,63.74,0,0,1,14.2-17Zm-21-21,15.8,15.8A71.61,71.61,0,0,0,.45,42.64,3.68,3.68,0,0,0,.4,46a65.35,65.35,0,0,0,4.14,6.82,77.11,77.11,0,0,0,6.5,8.2A58.64,58.64,0,0,0,23.32,71.42a42.94,42.94,0,0,0,10.77,4.81,37.49,37.49,0,0,0,10.34,1.44,40.12,40.12,0,0,0,12.65-2.2,40.91,40.91,0,0,0,8.86-4.3L82.45,87.68a3.7,3.7,0,0,0,5.23-5.23L6.31,1.08A3.7,3.7,0,0,0,1.08,6.31Z"/></g></g></svg>