<?xml version="1.0" encoding="UTF-8"?>
<svg width="23px" height="23px" viewBox="0 0 23 23" version="1.1" xmlns="http://www.w3.org/2000/svg" xmlns:xlink="http://www.w3.org/1999/xlink">
    <!-- Generator: Sketch 56.3 (81716) - https://sketch.com -->
    <title>Shape</title>
    <desc>Created with Sketch.</desc>
    <g id="Symbols-UX" stroke="none" stroke-width="1" fill="none" fill-rule="evenodd">
        <g id="icon/invisible" fill="#4D4D4F" fill-rule="nonzero">
            <path d="M9.25163685,5.18225513 C9.85590156,5.03932235 10.4751887,4.96865693 11.0963278,4.97176172 C11.8507584,4.97135725 12.6015687,5.07538306 13.3271168,5.28084064 C14.1691363,5.52480516 14.9731004,5.88347525 15.7160988,6.34663003 C16.7786525,7.01760096 17.7438995,7.82979373 18.5850222,8.76064298 C19.1537501,9.38120116 19.6787308,10.0400012 20.156227,10.7323533 C20.4779754,11.1933073 20.7192867,11.5903138 20.8828422,11.8700835 C20.3745591,12.7571042 19.7848599,13.595539 19.1212696,14.3746886 C18.7651357,14.7874578 18.8131529,15.4089719 19.2285191,15.7628792 C19.6438852,16.1167865 20.2693095,16.0690695 20.6254434,15.6563003 C21.4985334,14.6343673 22.2573071,13.5211906 22.8884073,12.3363664 C23.0371976,12.0524924 23.0371976,11.7143193 22.8884073,11.4304454 C22.5587685,10.8021134 22.1879598,10.1959735 21.7783753,9.61593896 C21.2486464,8.84788 20.666335,8.11697432 20.0355713,7.42840625 C19.076587,6.36268011 17.9740008,5.43376225 16.7590999,4.66801175 C15.860441,4.10840865 14.8876041,3.67614916 13.8687267,3.38373554 C12.9739033,3.13054043 12.0481668,3.00142482 11.1177777,3 C10.3368122,2.99754209 9.55829731,3.08698111 8.79850783,3.26649871 C8.44296215,3.3367909 8.15430846,3.59420551 8.04564212,3.93788674 C7.93697578,4.28156798 8.0256017,4.65678523 8.276796,4.91652727 C8.52799029,5.17626932 8.90175072,5.27917271 9.25163685,5.1849196 L9.25163685,5.18225513 Z M9.11505673,11 L12,13.8818692 C11.7930624,13.951531 11.5771291,13.9909383 11.3589015,13.9988682 C10.6127438,14.0223084 9.90209752,13.6804857 9.45516447,13.0831657 C9.00823143,12.4858457 8.88127255,11.7082204 9.11505673,11 L9.11505673,11 Z M5.75940707,7 L8.27099962,9.41856678 C8.12918215,9.63378108 8.01145977,9.86283909 7.91980236,10.1019079 C7.73771293,10.568511 7.65361304,11.0652151 7.67236792,11.5632852 C7.70363946,12.574249 8.15618025,13.5306578 8.9281642,14.2173104 C9.30665474,14.5536868 9.75064266,14.8146384 10.2345116,14.9851094 C11.2125922,15.3379293 12.2965415,15.3010848 13.2462942,14.8827362 C13.4088246,14.8179399 13.5662178,14.7418106 13.7172178,14.6549558 L16,16.8534202 C15.5023648,17.1300422 14.9785371,17.3605643 14.4355758,17.5418799 C13.5506218,17.8342789 12.6228232,17.9889309 11.6871912,18 C10.9465196,17.9992476 10.2095617,17.8993282 9.49752946,17.7031177 C8.66157718,17.4698741 7.86365195,17.1252913 7.12694793,16.6793858 C6.07172905,16.0370125 5.11374499,15.2575914 4.28012163,14.3631922 C3.71544457,13.7667258 3.19364955,13.1339605 2.71835804,12.469288 C2.40174838,12.0239646 2.16229571,11.6451838 2,11.3764542 C2.98571894,9.72517826 4.26436565,8.25266157 5.77803117,7.0255933 L5.75940707,7 Z M0.277906376,1.61267763 L4.37652545,5.71400852 C2.63786833,7.21322102 1.19190916,9.02186586 0.111886363,11.0483344 C-0.0325786103,11.3199994 -0.0374068243,11.6446701 0.0989160498,11.9205162 C0.420531372,12.5319594 0.779180216,13.1231679 1.17285801,13.6908375 C1.68609283,14.4377358 2.24943645,15.1488857 2.85899877,15.8193763 C3.79181235,16.8614561 4.86373952,17.7698778 6.04450777,18.5189865 C6.91394621,19.0617952 7.85408228,19.4819481 8.8383133,19.7675562 C9.71060288,20.0167235 10.6134413,20.1425404 11.5205741,20.1413484 C12.6379486,20.1285103 13.7459648,19.9356843 14.8020635,19.570277 C15.6102987,19.2921843 16.3820021,18.9174078 17.100403,18.454092 L21.3832005,22.7397232 C21.7610635,23.0947594 22.3523659,23.0854496 22.7188795,22.7186935 C23.0853931,22.3519374 23.0946967,21.7602437 22.7398953,21.3821308 L1.63200711,0.260276754 C1.25414418,-0.0947594024 0.662841786,-0.0854495602 0.29632819,0.281306535 C-0.0701854057,0.648062631 -0.0794890922,1.23975625 0.275312314,1.61786919 L0.277906376,1.61267763 Z" id="Shape"></path>
        </g>
    </g>
</svg>