<svg xmlns="http://www.w3.org/2000/svg" viewBox="0 0 91.87 69.04"><title>visible icon</title><g id="Layer_2" data-name="Layer 2"><g id="Sample"><path d="M.29,33a5.23,5.23,0,0,0,0,3.45,59.82,59.82,0,0,0,4.22,6.9,60.07,60.07,0,0,0,6.9,8.44A58.27,58.27,0,0,0,24.07,62.52a48.82,48.82,0,0,0,11.12,5A33.16,33.16,0,0,0,45.93,69a33.09,33.09,0,0,0,10.74-1.53,49.09,49.09,0,0,0,11.13-5A58.74,58.74,0,0,0,80.46,51.78c2.68-3.07,5-6.13,6.9-8.44,2.68-4.22,4.22-6.9,4.22-6.9a5.36,5.36,0,0,0,0-3.45,62.21,62.21,0,0,0-4.22-6.91,62.12,62.12,0,0,0-6.9-8.44A59,59,0,0,0,67.8,6.9a49.52,49.52,0,0,0-11.13-5A25.34,25.34,0,0,0,45.93,0,33.16,33.16,0,0,0,35.19,1.53a49.26,49.26,0,0,0-11.12,5A58.54,58.54,0,0,0,11.41,17.26c-2.68,3.07-5,6.14-6.9,8.44C1.82,29.92.29,32.6.29,33ZM8,34.52c.77-1.15,1.53-2.68,2.68-4.6a49.14,49.14,0,0,1,6.14-7.67c3.45-3.07,6.91-6.52,11.51-9.21a33.62,33.62,0,0,1,9.2-4.22,31.55,31.55,0,0,1,16.88,0A25.37,25.37,0,0,1,63.58,13,67.84,67.84,0,0,1,74.7,22.25a90.18,90.18,0,0,1,6.14,7.67,33.33,33.33,0,0,1,2.68,4.6c-.76,1.15-1.53,2.69-2.68,4.6A48.59,48.59,0,0,1,74.7,46.8,43.18,43.18,0,0,1,63.58,56a33.82,33.82,0,0,1-9.21,4.22,29.79,29.79,0,0,1-8.44,1.15,29.84,29.84,0,0,1-8.44-1.15A25.24,25.24,0,0,1,28.29,56a67.38,67.38,0,0,1-11.12-9.2A86.41,86.41,0,0,1,11,39.12C9.88,37.21,8.73,35.67,8,34.52Zm53.32,0a14.09,14.09,0,0,0-1.15-5.75,14.63,14.63,0,0,0-3.46-5,14.7,14.7,0,0,0-5-3.45,15,15,0,0,0-11.51,0,11.73,11.73,0,0,0-5,3.45c-1.15,1.54-2.68,3.07-3.45,5a13.93,13.93,0,0,0-1.15,5.75,14,14,0,0,0,1.15,5.76,14.7,14.7,0,0,0,3.45,5,14.46,14.46,0,0,0,5,3.45,15.35,15.35,0,0,0,5.75,1.15,14,14,0,0,0,5.76-1.15,14.42,14.42,0,0,0,5-3.45,14.59,14.59,0,0,0,3.46-5A14.17,14.17,0,0,0,61.28,34.52Zm-7.68,0a9.1,9.1,0,0,1-.76,3.07c-.39.77-.77,1.92-1.54,2.3S49.77,41,49,41.43a9.1,9.1,0,0,1-3.07.76,9.16,9.16,0,0,1-3.07-.76c-.76-.39-1.91-.77-2.3-1.54s-1.15-1.53-1.53-2.3a9.12,9.12,0,0,1-.77-3.07A9.12,9.12,0,0,1,39,31.45c.38-.76.77-1.91,1.53-2.3s1.54-1.15,2.3-1.53a7.38,7.38,0,0,1,3.07-.39A9.12,9.12,0,0,1,49,28c.77.38,1.92.77,2.3,1.54s1.15,1.53,1.54,2.3A5.54,5.54,0,0,1,53.6,34.52Z"/></g></g></svg>