<?xml version="1.0" encoding="UTF-8"?>
<svg width="24px" height="18px" viewBox="0 0 24 18" version="1.1" xmlns="http://www.w3.org/2000/svg" xmlns:xlink="http://www.w3.org/1999/xlink">
    <!-- Generator: Sketch 56.3 (81716) - https://sketch.com -->
    <title>visible icon</title>
    <desc>Created with Sketch.</desc>
    <g id="Symbols-UX" stroke="none" stroke-width="1" fill="none" fill-rule="evenodd">
        <g id="icon/visible" fill="#CFCFCF" fill-rule="nonzero">
            <g id="visible-icon">
                <path d="M0.3225,8.5 C0.224944936,8.77922436 0.224944936,9.08327564 0.3225,9.3625 C0.634847017,9.96064287 0.987319141,10.5369599 1.3775,11.0875 C1.88735889,11.8416631 2.46473591,12.547904 3.1025,13.1975 C4.02411418,14.2380898 5.08992073,15.1414156 6.2675,15.88 C7.13829197,16.4111979 8.07224015,16.8311387 9.0475,17.13 C9.91614129,17.3997968 10.8232624,17.5248004 11.7325,17.5 C12.642448,17.5210784 13.549637,17.391842 14.4175,17.1175 C15.3933744,16.8181701 16.3280927,16.3982607 17.2,15.8675 C18.3759764,15.1306882 19.4415755,14.2309051 20.365,13.195 C21.035,12.4275 21.615,11.6625 22.09,11.085 C22.76,10.03 23.145,9.36 23.145,9.36 C23.2400542,9.08035678 23.2400542,8.77714322 23.145,8.4975 C22.8312188,7.89936843 22.478806,7.32231323 22.09,6.77 C21.5779449,6.01747436 21.0007228,5.31142296 20.365,4.66 C19.4418238,3.6202993 18.3762774,2.71635234 17.2,1.975 C16.327575,1.44522358 15.3929824,1.02537067 14.4175,0.725 C13.5675887,0.373648665 12.6513686,0.211561301 11.7325,0.25 C10.822571,0.22924134 9.91543406,0.358470339 9.0475,0.6325 C8.07264509,0.932436398 7.13882741,1.35231845 6.2675,1.8825 C5.09046682,2.62183057 4.02476074,3.52507119 3.1025,4.565 C2.4325,5.3325 1.8525,6.1 1.3775,6.675 C0.705,7.73 0.3225,8.4 0.3225,8.5 Z M2.25,8.88 C2.4425,8.5925 2.6325,8.21 2.92,7.73 C3.36632499,7.04115935 3.88056122,6.39878281 4.455,5.8125 C5.3175,5.045 6.1825,4.1825 7.3325,3.51 C8.04153376,3.04428028 8.81698638,2.68858353 9.6325,2.455 C11.0130576,2.07171546 12.4719424,2.07171546 13.8525,2.455 C14.6788586,2.64652596 15.4584026,3.00186881 16.145,3.5 C17.1514292,4.16955997 18.0833917,4.94479859 18.925,5.8125 C19.4711302,6.42329867 19.9835572,7.06341508 20.46,7.73 C20.7136397,8.09485522 20.9376876,8.47941497 21.13,8.88 C20.94,9.1675 20.7475,9.5525 20.46,10.03 C20.0145716,10.7202573 19.5002724,11.3635502 18.925,11.95 C18.1339274,12.8671979 17.1941365,13.6447228 16.145,14.25 C15.4348228,14.7152762 14.6586164,15.0709321 13.8425,15.305 C13.1565696,15.5014113 12.4459739,15.5982342 11.7325,15.5925 C11.0190371,15.5980614 10.308466,15.5012419 9.6225,15.305 C8.7924624,15.1122411 8.01006649,14.7533595 7.3225,14.25 C6.31616126,13.585074 5.38414956,12.8139851 4.5425,11.95 C3.99223935,11.3398543 3.47723593,10.6988127 3,10.03 C2.72,9.5525 2.4325,9.1675 2.25,8.88 Z M15.58,8.88 C15.5860385,8.38597346 15.4880842,7.89620199 15.2925,7.4425 C15.0948903,6.96985261 14.8001931,6.54398968 14.4275,6.1925 C14.0754304,5.82110354 13.6496742,5.52733175 13.1775,5.33 C12.2564953,4.94735825 11.2210047,4.94735825 10.3,5.33 C9.81482523,5.50274841 9.38370088,5.80022421 9.05,6.1925 C8.7625,6.5775 8.38,6.96 8.1875,7.4425 C7.99075653,7.89583982 7.89275211,8.38586191 7.9,8.88 C7.89293075,9.37492942 7.99092038,9.86572964 8.1875,10.32 C8.38483175,10.7921742 8.67860354,11.2179304 9.05,11.57 C9.40089471,11.9427663 9.82696211,12.2367528 10.3,12.4325 C10.7562399,12.6198168 11.2443105,12.7174309 11.7375,12.72 C12.2324294,12.7270693 12.7232296,12.6290796 13.1775,12.4325 C13.6506845,12.2370224 14.0768053,11.942999 14.4275,11.57 C14.8004206,11.2187059 15.0951535,10.7927914 15.2925,10.32 C15.4844282,9.86461012 15.5789533,9.37410143 15.57,8.88 L15.58,8.88 Z M13.66,8.88 C13.6419499,9.14496225 13.5776456,9.40471775 13.47,9.6475 C13.3725,9.84 13.2775,10.1275 13.085,10.2225 C12.8925,10.3175 12.6925,10.5 12.5,10.6075 C12.2572178,10.7151456 11.9974623,10.7794499 11.7325,10.7975 C11.4675855,10.7791456 11.207882,10.7148541 10.965,10.6075 C10.775,10.51 10.4875,10.415 10.39,10.2225 C10.2925,10.03 10.1025,9.84 10.0075,9.6475 C9.89909106,9.40484166 9.83394351,9.14509755 9.815,8.88 C9.83156759,8.61535538 9.89417259,8.35562922 10,8.1125 C10.095,7.9225 10.1925,7.635 10.3825,7.5375 C10.5725,7.44 10.7675,7.25 10.9575,7.155 C11.2035674,7.06862283 11.4651511,7.03539233 11.725,7.0575 C11.9926462,7.0755753 12.2550026,7.14074125 12.5,7.25 C12.6925,7.345 12.98,7.4425 13.075,7.635 C13.17,7.8275 13.3625,8.0175 13.46,8.21 C13.5793654,8.41350514 13.6447663,8.64412916 13.65,8.88 L13.66,8.88 Z" id="Shape"></path>
            </g>
        </g>
    </g>
</svg>